<?xml version="1.0" encoding="UTF-8"?>
<!-- Generated by jsxcad -->
<!DOCTYPE svg PUBLIC "-//W3C//DTD SVG 1.1 Tiny//EN" "http://www.w3.org/Graphics/SVG/1.1/DTD/svg11-tiny.dtd">
<svg baseProfile="tiny" height="99.80286mm" width="99.89675mm" viewBox="0.00034 0.19714 99.89675 99.80286" version="1.1" stroke="black" stroke-width=".1" fill="none" xmlns="http://www.w3.org/2000/svg">
<path fill="#000000" stroke="#000000" d="M0.00034 47.72845 L1.20739 38.85179 L3.98657 30.31546 L8.20560 22.47706 L13.85306 15.40081 L20.60305 9.51751 L28.22645 4.96509 L36.67756 1.79340 L45.51304 0.19714 L54.38440 0.19714 L63.21988 1.79340 L71.67098 4.96509 L79.29439 9.51751 L86.04437 15.40081 L91.69184 22.47706 L95.91086 30.31546 L98.69005 38.85179 L99.89709 47.72845 L99.49118 56.74864 L97.51629 65.40541 L93.95409 73.73873 L89.03558 81.18040 L82.82543 87.67123 L75.58408 92.92818 L67.54872 96.80000 L58.83270 99.20442 L49.94872 100.00000 L41.06474 99.20442 L32.34872 96.80000 L24.31336 92.92818 L17.07201 87.67123 L10.86186 81.18040 L5.94335 73.73873 L2.38115 65.40541 L0.40625 56.74864 z M91.66778 67.72858 L91.66681 67.65406 L91.58640 66.91065 L91.57828 66.84217 L91.56298 66.77541 L91.35247 66.04308 L91.33246 65.98511 L91.30693 65.93008 L90.97549 65.23035 L90.94924 65.18574 L90.49646 64.53172 L90.47187 64.49825 L90.44461 64.46780 L89.88925 63.88126 L89.86748 63.86129 L89.20941 63.35291 L89.19566 63.34245 L89.18130 63.33349 L88.44768 62.92290 L88.44382 62.92098 L88.43990 62.91946 L88.17525 62.81964 L87.30639 64.62098 L87.50527 64.71220 L87.51369 64.71749 L88.03569 65.09045 L88.06399 65.11729 L88.48478 65.55851 L88.52258 65.61231 L88.83147 66.09959 L88.86685 66.18124 L89.06206 66.69330 L89.08343 66.79863 L89.16873 67.31329 L89.16717 67.43470 L89.14486 67.93494 L89.11486 68.06141 L88.99192 68.53577 L88.93387 68.65620 L88.71483 69.08968 L88.63293 69.19328 L88.32614 69.57293 L88.22782 69.65283 L87.83877 69.96583 L87.37012 70.20736 L87.27610 70.25526 L86.74222 70.40332 L86.65935 70.42544 L86.07461 70.46859 L86.01259 70.47213 L85.39787 70.39707 L85.36362 70.39225 L84.74474 70.19318 L84.74003 70.19152 L84.64476 70.13910 L83.77805 71.93598 L84.27393 72.19904 L84.28168 72.20238 L85.06738 72.48206 L85.08727 72.48851 L85.10809 72.49312 L85.91762 72.64887 L85.95071 72.65296 L86.75059 72.68405 L86.79491 72.68535 L86.83979 72.68222 L87.62351 72.58721 L87.67758 72.57783 L87.73100 72.56292 L88.47621 72.34846 L88.53563 72.32524 L89.21470 71.99761 L89.27723 71.96504 L89.33634 71.92581 L89.94239 71.49604 L90.00058 71.44731 L90.51297 70.92505 L90.56795 70.86803 L90.61648 70.80511 L91.02742 70.20516 L91.06915 70.13595 L91.10282 70.06244 L91.39704 69.40120 L91.42245 69.32474 L91.59734 68.61722 L91.61367 68.54041 L91.62118 68.46243 z M91.84554 32.50057 L91.84439 32.42468 L91.76190 31.69770 L91.75228 31.61908 L91.73403 31.54174 L91.52728 30.84456 L91.49986 30.76854 L91.46401 30.69606 L91.13611 30.05085 L91.09277 29.98294 L90.65373 29.40120 L90.60439 29.34011 L90.54859 29.28513 L90.00824 28.78639 L89.94978 28.74018 L89.32196 28.33402 L89.26368 28.29716 L89.20220 28.26696 L88.50098 27.96879 L88.44336 27.94779 L88.38455 27.93292 L87.63241 27.74918 L87.58123 27.74144 L86.78809 27.68071 L86.74661 27.67871 L86.70579 27.68067 L85.90038 27.74213 L85.87116 27.74643 L85.06169 27.93688 L85.04490 27.94096 L85.02889 27.94646 L84.24772 28.25720 L84.24380 28.25898 L84.24015 28.26107 L83.99585 28.40362 L84.84664 30.21355 L85.04282 30.11665 L85.05224 30.11345 L85.67080 29.94328 L85.70948 29.93823 L86.31725 29.88966 L86.38284 29.89423 L86.95582 29.96156 L87.04152 29.98556 L87.56209 30.15677 L87.65734 30.20656 L88.11065 30.46475 L88.20392 30.54248 L88.57822 30.87511 L88.65749 30.97811 L88.94826 31.37256 L89.00517 31.49353 L89.20364 31.93681 L89.23244 32.06569 L89.33380 32.54316 L89.33386 32.66985 L89.33163 33.16918 L89.22374 33.68525 L89.20167 33.78843 L88.98010 34.29623 L88.94504 34.37451 L88.60997 34.85566 L88.57362 34.90604 L88.12788 35.33597 L88.10256 35.35951 L87.55792 35.71451 L87.55367 35.71711 L87.45292 35.75804 L88.30161 37.56350 L88.81839 37.34434 L88.82587 37.34042 L89.53823 36.90673 L89.55578 36.89537 L89.57249 36.88210 L90.20366 36.35180 L90.22768 36.32869 L90.75600 35.72731 L90.78494 35.69372 L90.81080 35.65690 L91.23103 34.98859 L91.25784 34.94070 L91.27993 34.88983 L91.58315 34.17612 L91.60257 34.11535 L91.77625 33.38164 L91.79038 33.31257 L91.79719 33.24196 z M64.62799 10.92774 L64.61176 10.10353 L64.60887 10.07031 L64.47273 9.28149 L64.46477 9.23787 L64.45236 9.19462 L64.19626 8.44787 L64.17582 8.39693 L64.15011 8.34779 L63.78519 7.66357 L63.75010 7.61029 L63.28825 7.01431 L63.24338 6.95994 L63.19271 6.91029 L62.64616 6.40701 L62.58639 6.36024 L61.96888 5.96783 L61.90166 5.92593 L61.83002 5.89156 L61.15765 5.61456 L61.08127 5.58815 L61.00236 5.57052 L60.29435 5.42043 L60.21427 5.41150 L59.48585 5.38776 L59.40732 5.38779 L59.32949 5.39667 L58.60201 5.50390 L58.52934 5.52037 L57.81896 5.75380 L57.75367 5.77600 L57.69156 5.80487 L57.01912 6.16325 L56.96658 6.19489 L56.91807 6.23132 L56.30269 6.70119 L56.26453 6.73616 L55.71911 7.31520 L55.69150 7.34621 L55.66739 7.37921 L55.20935 8.04454 L55.19435 8.06998 L54.83413 8.81948 L54.82676 8.83511 L54.82099 8.85102 L54.57215 9.65406 L54.57108 9.65823 L54.57041 9.66238 L54.52789 9.94202 L56.47065 10.41676 L56.51846 10.20324 L56.52189 10.19390 L56.77798 9.60569 L56.79834 9.57242 L57.14227 9.06898 L57.18703 9.02081 L57.59930 8.61723 L57.67180 8.56562 L58.13199 8.26807 L58.23056 8.22523 L58.71619 8.03465 L58.83525 8.01089 L59.32918 7.92855 L59.45912 7.93156 L59.94868 7.95304 L60.07856 7.98473 L60.54815 8.10871 L60.66653 8.16726 L61.10174 8.38827 L61.20036 8.46779 L61.58750 8.78315 L61.92132 9.19123 L61.98775 9.27322 L62.24373 9.76457 L62.28262 9.84102 L62.44657 10.40395 L62.46295 10.46388 L62.51753 11.08076 L62.51995 11.11525 L62.45411 11.76203 L62.45347 11.76697 L62.42204 11.87107 L64.35999 12.34464 L64.51404 11.80486 L64.51569 11.79658 L64.62564 10.96986 L64.62781 10.94907 z M62.18057 89.60714 L62.17939 89.59025 L62.08125 88.75529 L62.08055 88.75104 L62.07947 88.74698 L62.00496 88.47412 L60.03657 88.82787 L60.07944 89.04244 L60.08009 89.05237 L60.08449 89.69389 L60.07937 89.73256 L59.96911 90.33221 L59.94773 90.39439 L59.73450 90.93047 L59.68916 91.00705 L59.38914 91.46563 L59.31640 91.54475 L58.94976 91.91587 L58.85056 91.98587 L58.43244 92.26140 L58.31244 92.31134 L57.85622 92.49020 L57.72464 92.51389 L57.24512 92.59097 L57.11317 92.58545 L56.62573 92.55988 L56.50333 92.52718 L56.02157 92.39588 L55.55096 92.15820 L55.45699 92.11019 L55.02378 91.76483 L54.95723 91.71072 L54.57911 91.26261 L54.53984 91.21447 L54.23982 90.67271 L54.22362 90.64215 L54.02156 90.02423 L54.02015 90.01945 L54.00667 89.91155 L52.04315 90.26443 L52.12120 90.82031 L52.12304 90.82854 L52.35774 91.62884 L52.36418 91.64872 L52.37268 91.66829 L52.72170 92.41514 L52.73781 92.44433 L53.18210 93.11020 L53.20706 93.14684 L53.23593 93.18135 L53.77283 93.76012 L53.81216 93.79840 L53.85559 93.83290 L54.46659 94.31038 L54.52027 94.34486 L55.18410 94.70239 L55.24716 94.73390 L55.31361 94.75873 L56.01728 94.99718 L56.09088 95.01570 L56.81447 95.12403 L56.89290 95.13507 L56.97232 95.13744 L57.69926 95.11803 L57.77978 95.11121 L57.85906 95.09532 L58.56712 94.94545 L58.64394 94.92114 L59.31943 94.64749 L59.39120 94.61563 L59.45875 94.57595 L60.08026 94.18297 L60.14002 94.13845 L60.69473 93.63702 L60.74541 93.59026 L60.79048 93.53869 L61.25986 92.93844 L61.29505 92.88821 L61.32462 92.83525 L61.69663 92.15621 L61.71734 92.10877 L61.98113 91.35832 L61.99379 91.31878 L62.00246 91.27883 L62.15139 90.48494 L62.15479 90.45560 L62.18017 89.62441 z M27.67700 83.60924 L26.16173 82.30399 L26.02217 82.47251 L26.01488 82.47927 L25.51958 82.88702 L25.48634 82.90742 L24.95128 83.19976 L24.88954 83.22235 L24.33894 83.39468 L24.25091 83.40774 L23.70579 83.46384 L23.59852 83.45724 L23.07930 83.40649 L22.96244 83.37359 L22.48499 83.22263 L22.37059 83.16094 L21.94418 82.91947 L21.84286 82.83225 L21.48079 82.50854 L21.40191 82.40262 L21.11454 82.00806 L21.06279 81.89243 L20.86109 81.43565 L20.74901 80.92047 L20.72706 80.81726 L20.72215 80.26325 L20.72221 80.17748 L20.83179 79.60149 L20.84442 79.54066 L21.07594 78.96627 L21.08945 78.93444 L21.44184 78.38811 L21.44466 78.38400 L21.51993 78.30553 L20.00842 77.00350 L19.62604 77.41446 L19.62081 77.42108 L19.14740 78.10769 L19.13602 78.12523 L19.12618 78.14416 L18.76633 78.88584 L18.75382 78.91675 L18.51688 79.68136 L18.50415 79.72383 L18.49557 79.76800 L18.38461 80.54961 L18.37968 80.60427 L18.38027 80.65974 L18.39466 81.43505 L18.40172 81.49846 L18.54254 82.23917 L18.55782 82.30800 L18.58042 82.37524 L18.83880 83.07184 L18.87081 83.14065 L19.24276 83.77070 L19.28362 83.83856 L19.33183 83.90171 L19.80507 84.45385 L19.86112 84.51207 L19.92342 84.56361 L20.48605 85.01887 L20.55334 85.06319 L21.19153 85.41515 L21.26150 85.45079 L21.33488 85.47822 L22.03170 85.71307 L22.10393 85.73140 L22.84284 85.84604 L22.91109 85.85591 L22.97954 85.85839 L23.74139 85.84449 L23.80257 85.84015 L23.86233 85.82973 L24.62398 85.69058 L24.67386 85.67675 L25.42275 85.40857 L25.46143 85.39348 L25.49791 85.37503 L26.20814 84.99028 L26.23306 84.97443 L26.89437 84.47027 L26.90803 84.45969 L26.92040 84.44813 L27.50679 83.84569 L27.50964 83.84247 L27.51212 83.83907 z M29.76009 15.09971 L29.43762 14.64024 L29.43223 14.63375 L28.85904 14.02794 L28.84425 14.01316 L28.82779 13.99960 L28.17713 13.49341 L28.14949 13.47475 L27.45085 13.08402 L27.41195 13.06274 L27.37054 13.04516 L26.62907 12.77412 L26.57663 12.75794 L26.52226 12.74698 L25.76089 12.59986 L25.69740 12.59359 L24.94360 12.57733 L24.87310 12.57797 L24.80263 12.58609 L24.06754 12.69399 L23.99357 12.71100 L23.29996 12.94383 L23.22509 12.96969 L23.15329 13.00372 L22.51482 13.35182 L22.44622 13.39455 L22.38286 13.44477 L21.82057 13.90045 L21.76323 13.95705 L21.28628 14.50813 L21.23687 14.56916 L21.19478 14.63523 L20.82019 15.26800 L20.78724 15.33484 L20.52148 16.03377 L20.49764 16.09847 L20.48098 16.16491 L20.33618 16.91301 L20.32770 16.97375 L20.32547 17.03437 L20.30323 17.80831 L20.30638 17.85997 L20.41301 18.64826 L20.41973 18.68923 L20.43019 18.72874 L20.65887 19.50344 L20.66919 19.53112 L21.02485 20.28280 L21.03235 20.29836 L21.04108 20.31286 L21.50845 21.01169 L21.51101 21.01515 L21.51382 21.01828 L21.70434 21.22734 L23.29611 20.01656 L23.16029 19.84501 L23.15519 19.83647 L22.85932 19.26722 L22.84628 19.23046 L22.67158 18.64632 L22.66232 18.58123 L22.60823 18.00684 L22.61376 17.91801 L22.67222 17.37314 L22.70097 17.26958 L22.85856 16.77226 L22.91504 16.66479 L23.16196 16.22916 L23.24609 16.13008 L23.57094 15.76320 L23.67732 15.68223 L24.06924 15.39537 L24.18924 15.34024 L24.63492 15.14118 L24.75879 15.11460 L25.24752 15.01227 L25.77474 15.00975 L25.88026 15.00974 L26.42319 15.12012 L26.50707 15.13801 L27.04769 15.36495 L27.10457 15.38995 L27.61827 15.73583 L27.64659 15.75566 L28.10772 16.21394 L28.11116 16.21755 L28.17226 16.30750 z M10.12717 43.68693 L9.56719 43.64784 L9.55876 43.64794 L8.72717 43.71132 L8.70638 43.71349 L8.68547 43.71774 L7.88243 43.90405 L7.85053 43.91375 L7.10691 44.21007 L7.06588 44.22687 L7.02613 44.24795 L6.34848 44.65294 L6.30287 44.68347 L6.26010 44.71879 L5.66614 45.21731 L5.62126 45.26266 L5.13367 45.83776 L5.08975 45.89291 L5.05166 45.95275 L4.67228 46.59156 L4.63888 46.65971 L4.38264 47.34502 L4.35555 47.41945 L4.33674 47.49665 L4.20476 48.21177 L4.19471 48.29196 L4.19379 48.37281 L4.19335 49.09656 L4.20117 49.17675 L4.32857 49.89434 L4.34484 49.97116 L4.36962 50.04548 L4.62497 50.73505 L4.65611 50.80275 L5.03140 51.44951 L5.06662 51.50879 L5.10771 51.56359 L5.59739 52.14739 L5.63922 52.19224 L5.68488 52.23217 L6.27186 52.73709 L6.31396 52.76719 L6.99327 53.18108 L7.02932 53.20168 L7.06660 53.21845 L7.81226 53.52901 L7.84025 53.53842 L8.64805 53.73587 L8.66486 53.73985 L8.68162 53.74220 L9.51876 53.81960 L9.52306 53.81979 L9.52726 53.81959 L9.80965 53.80336 L9.87239 51.80442 L9.65360 51.80179 L9.64375 51.80037 L9.01530 51.67145 L8.97853 51.65841 L8.41485 51.42602 L8.35847 51.39219 L7.87836 51.07228 L7.81287 51.01203 L7.42659 50.62331 L7.36430 50.53573 L7.07741 50.10002 L7.02954 49.98844 L6.84685 49.52221 L6.82291 49.39446 L6.74270 48.91104 L6.74685 48.77741 L6.77104 48.29233 L6.80384 48.16441 L6.93008 47.69290 L6.98749 47.57997 L7.21597 47.13598 L7.54621 46.72499 L7.61268 46.64304 L8.04048 46.29099 L8.10723 46.23713 L8.62410 45.96031 L8.67934 45.93189 L9.27160 45.75093 L9.30485 45.74143 L9.95126 45.67210 L9.95623 45.67171 L10.06458 45.68093 z"/>
<path fill="#000000" stroke="#000000" d="M87.30639 64.62098 L88.17525 62.81964 L88.43990 62.91946 L88.44382 62.92098 L88.44768 62.92290 L89.18130 63.33349 L89.19566 63.34245 L89.20941 63.35291 L89.86748 63.86129 L89.88925 63.88126 L90.44461 64.46780 L90.47187 64.49825 L90.49646 64.53172 L90.94924 65.18574 L90.97549 65.23035 L91.30693 65.93008 L91.33246 65.98511 L91.35247 66.04308 L91.56298 66.77541 L91.57828 66.84217 L91.58640 66.91065 L91.66681 67.65406 L91.66778 67.72858 L91.62118 68.46243 L91.61367 68.54041 L91.59734 68.61722 L91.42245 69.32474 L91.39704 69.40120 L91.10282 70.06244 L91.06915 70.13595 L91.02742 70.20516 L90.61648 70.80511 L90.56795 70.86803 L90.51297 70.92505 L90.00058 71.44731 L89.94239 71.49604 L89.33634 71.92581 L89.27723 71.96504 L89.21470 71.99761 L88.53563 72.32524 L88.47621 72.34846 L87.73100 72.56292 L87.67758 72.57783 L87.62351 72.58721 L86.83979 72.68222 L86.79491 72.68535 L86.75059 72.68405 L85.95071 72.65296 L85.91762 72.64887 L85.10809 72.49312 L85.08727 72.48851 L85.06738 72.48206 L84.28168 72.20238 L84.27393 72.19904 L83.77805 71.93598 L84.64476 70.13910 L84.74003 70.19152 L84.74474 70.19318 L85.36362 70.39225 L85.39787 70.39707 L86.01259 70.47213 L86.07461 70.46859 L86.65935 70.42544 L86.74222 70.40332 L87.27610 70.25526 L87.37012 70.20736 L87.83877 69.96583 L88.22782 69.65283 L88.32614 69.57293 L88.63293 69.19328 L88.71483 69.08968 L88.93387 68.65620 L88.99192 68.53577 L89.11486 68.06141 L89.14486 67.93494 L89.16717 67.43470 L89.16873 67.31329 L89.08343 66.79863 L89.06206 66.69330 L88.86685 66.18124 L88.83147 66.09959 L88.52258 65.61231 L88.48478 65.55851 L88.06399 65.11729 L88.03569 65.09045 L87.51369 64.71749 L87.50527 64.71220 z"/>
<path fill="#000000" stroke="#000000" d="M91.79719 33.24196 L91.79038 33.31257 L91.77625 33.38164 L91.60257 34.11535 L91.58315 34.17612 L91.27993 34.88983 L91.25784 34.94070 L91.23103 34.98859 L90.81080 35.65690 L90.78494 35.69372 L90.75600 35.72731 L90.22768 36.32869 L90.20366 36.35180 L89.57249 36.88210 L89.55578 36.89537 L89.53823 36.90673 L88.82587 37.34042 L88.81839 37.34434 L88.30161 37.56350 L87.45292 35.75804 L87.55367 35.71711 L87.55792 35.71451 L88.10256 35.35951 L88.12788 35.33597 L88.57362 34.90604 L88.60997 34.85566 L88.94504 34.37451 L88.98010 34.29623 L89.20167 33.78843 L89.22374 33.68525 L89.33163 33.16918 L89.33386 32.66985 L89.33380 32.54316 L89.23244 32.06569 L89.20364 31.93681 L89.00517 31.49353 L88.94826 31.37256 L88.65749 30.97811 L88.57822 30.87511 L88.20392 30.54248 L88.11065 30.46475 L87.65734 30.20656 L87.56209 30.15677 L87.04152 29.98556 L86.95582 29.96156 L86.38284 29.89423 L86.31725 29.88966 L85.70948 29.93823 L85.67080 29.94328 L85.05224 30.11345 L85.04282 30.11665 L84.84664 30.21355 L83.99585 28.40362 L84.24015 28.26107 L84.24380 28.25898 L84.24772 28.25720 L85.02889 27.94646 L85.04490 27.94096 L85.06169 27.93688 L85.87116 27.74643 L85.90038 27.74213 L86.70579 27.68067 L86.74661 27.67871 L86.78809 27.68071 L87.58123 27.74144 L87.63241 27.74918 L88.38455 27.93292 L88.44336 27.94779 L88.50098 27.96879 L89.20220 28.26696 L89.26368 28.29716 L89.32196 28.33402 L89.94978 28.74018 L90.00824 28.78639 L90.54859 29.28513 L90.60439 29.34011 L90.65373 29.40120 L91.09277 29.98294 L91.13611 30.05085 L91.46401 30.69606 L91.49986 30.76854 L91.52728 30.84456 L91.73403 31.54174 L91.75228 31.61908 L91.76190 31.69770 L91.84439 32.42468 L91.84554 32.50057 z"/>
<path fill="#000000" stroke="#000000" d="M64.62781 10.94907 L64.62564 10.96986 L64.51569 11.79658 L64.51404 11.80486 L64.35999 12.34464 L62.42204 11.87107 L62.45347 11.76697 L62.45411 11.76203 L62.51995 11.11525 L62.51753 11.08076 L62.46295 10.46388 L62.44657 10.40395 L62.28262 9.84102 L62.24373 9.76457 L61.98775 9.27322 L61.92132 9.19123 L61.58750 8.78315 L61.20036 8.46779 L61.10174 8.38827 L60.66653 8.16726 L60.54815 8.10871 L60.07856 7.98473 L59.94868 7.95304 L59.45912 7.93156 L59.32918 7.92855 L58.83525 8.01089 L58.71619 8.03465 L58.23056 8.22523 L58.13199 8.26807 L57.67180 8.56562 L57.59930 8.61723 L57.18703 9.02081 L57.14227 9.06898 L56.79834 9.57242 L56.77798 9.60569 L56.52189 10.19390 L56.51846 10.20324 L56.47065 10.41676 L54.52789 9.94202 L54.57041 9.66238 L54.57108 9.65823 L54.57215 9.65406 L54.82099 8.85102 L54.82676 8.83511 L54.83413 8.81948 L55.19435 8.06998 L55.20935 8.04454 L55.66739 7.37921 L55.69150 7.34621 L55.71911 7.31520 L56.26453 6.73616 L56.30269 6.70119 L56.91807 6.23132 L56.96658 6.19489 L57.01912 6.16325 L57.69156 5.80487 L57.75367 5.77600 L57.81896 5.75380 L58.52934 5.52037 L58.60201 5.50390 L59.32949 5.39667 L59.40732 5.38779 L59.48585 5.38776 L60.21427 5.41150 L60.29435 5.42043 L61.00236 5.57052 L61.08127 5.58815 L61.15765 5.61456 L61.83002 5.89156 L61.90166 5.92593 L61.96888 5.96783 L62.58639 6.36024 L62.64616 6.40701 L63.19271 6.91029 L63.24338 6.95994 L63.28825 7.01431 L63.75010 7.61029 L63.78519 7.66357 L64.15011 8.34779 L64.17582 8.39693 L64.19626 8.44787 L64.45236 9.19462 L64.46477 9.23787 L64.47273 9.28149 L64.60887 10.07031 L64.61176 10.10353 L64.62799 10.92774 z"/>
<path fill="#000000" stroke="#000000" d="M22.60823 18.00684 L22.66232 18.58123 L22.67158 18.64632 L22.84628 19.23046 L22.85932 19.26722 L23.15519 19.83647 L23.16029 19.84501 L23.29611 20.01656 L21.70434 21.22734 L21.51382 21.01828 L21.51101 21.01515 L21.50845 21.01169 L21.04108 20.31286 L21.03235 20.29836 L21.02485 20.28280 L20.66919 19.53112 L20.65887 19.50344 L20.43019 18.72874 L20.41973 18.68923 L20.41301 18.64826 L20.30638 17.85997 L20.30323 17.80831 L20.32547 17.03437 L20.32770 16.97375 L20.33618 16.91301 L20.48098 16.16491 L20.49764 16.09847 L20.52148 16.03377 L20.78724 15.33484 L20.82019 15.26800 L21.19478 14.63523 L21.23687 14.56916 L21.28628 14.50813 L21.76323 13.95705 L21.82057 13.90045 L22.38286 13.44477 L22.44622 13.39455 L22.51482 13.35182 L23.15329 13.00372 L23.22509 12.96969 L23.29996 12.94383 L23.99357 12.71100 L24.06754 12.69399 L24.80263 12.58609 L24.87310 12.57797 L24.94360 12.57733 L25.69740 12.59359 L25.76089 12.59986 L26.52226 12.74698 L26.57663 12.75794 L26.62907 12.77412 L27.37054 13.04516 L27.41195 13.06274 L27.45085 13.08402 L28.14949 13.47475 L28.17713 13.49341 L28.82779 13.99960 L28.84425 14.01316 L28.85904 14.02794 L29.43223 14.63375 L29.43762 14.64024 L29.76009 15.09971 L28.17226 16.30750 L28.11116 16.21755 L28.10772 16.21394 L27.64659 15.75566 L27.61827 15.73583 L27.10457 15.38995 L27.04769 15.36495 L26.50707 15.13801 L26.42319 15.12012 L25.88026 15.00974 L25.77474 15.00975 L25.24752 15.01227 L24.75879 15.11460 L24.63492 15.14118 L24.18924 15.34024 L24.06924 15.39537 L23.67732 15.68223 L23.57094 15.76320 L23.24609 16.13008 L23.16196 16.22916 L22.91504 16.66479 L22.85856 16.77226 L22.70097 17.26958 L22.67222 17.37314 L22.61376 17.91801 z"/>
<path fill="#000000" stroke="#000000" d="M6.74270 48.91104 L6.82291 49.39446 L6.84685 49.52221 L7.02954 49.98844 L7.07741 50.10002 L7.36430 50.53573 L7.42659 50.62331 L7.81287 51.01203 L7.87836 51.07228 L8.35847 51.39219 L8.41485 51.42602 L8.97853 51.65841 L9.01530 51.67145 L9.64375 51.80037 L9.65360 51.80179 L9.87239 51.80442 L9.80965 53.80336 L9.52726 53.81959 L9.52306 53.81979 L9.51876 53.81960 L8.68162 53.74220 L8.66486 53.73985 L8.64805 53.73587 L7.84025 53.53842 L7.81226 53.52901 L7.06660 53.21845 L7.02932 53.20168 L6.99327 53.18108 L6.31396 52.76719 L6.27186 52.73709 L5.68488 52.23217 L5.63922 52.19224 L5.59739 52.14739 L5.10771 51.56359 L5.06662 51.50879 L5.03140 51.44951 L4.65611 50.80275 L4.62497 50.73505 L4.36962 50.04548 L4.34484 49.97116 L4.32857 49.89434 L4.20117 49.17675 L4.19335 49.09656 L4.19379 48.37281 L4.19471 48.29196 L4.20476 48.21177 L4.33674 47.49665 L4.35555 47.41945 L4.38264 47.34502 L4.63888 46.65971 L4.67228 46.59156 L5.05166 45.95275 L5.08975 45.89291 L5.13367 45.83776 L5.62126 45.26266 L5.66614 45.21731 L6.26010 44.71879 L6.30287 44.68347 L6.34848 44.65294 L7.02613 44.24795 L7.06588 44.22687 L7.10691 44.21007 L7.85053 43.91375 L7.88243 43.90405 L8.68547 43.71774 L8.70638 43.71349 L8.72717 43.71132 L9.55876 43.64794 L9.56719 43.64784 L10.12717 43.68693 L10.06458 45.68093 L9.95623 45.67171 L9.95126 45.67210 L9.30485 45.74143 L9.27160 45.75093 L8.67934 45.93189 L8.62410 45.96031 L8.10723 46.23713 L8.04048 46.29099 L7.61268 46.64304 L7.54621 46.72499 L7.21597 47.13598 L6.98749 47.57997 L6.93008 47.69290 L6.80384 48.16441 L6.77104 48.29233 L6.74685 48.77741 z"/>
<path fill="#000000" stroke="#000000" d="M18.37968 80.60427 L18.38461 80.54961 L18.49557 79.76800 L18.50415 79.72383 L18.51688 79.68136 L18.75382 78.91675 L18.76633 78.88584 L19.12618 78.14416 L19.13602 78.12523 L19.14740 78.10769 L19.62081 77.42108 L19.62604 77.41446 L20.00842 77.00350 L21.51993 78.30553 L21.44466 78.38400 L21.44184 78.38811 L21.08945 78.93444 L21.07594 78.96627 L20.84442 79.54066 L20.83179 79.60149 L20.72221 80.17748 L20.72215 80.26325 L20.72706 80.81726 L20.74901 80.92047 L20.86109 81.43565 L21.06279 81.89243 L21.11454 82.00806 L21.40191 82.40262 L21.48079 82.50854 L21.84286 82.83225 L21.94418 82.91947 L22.37059 83.16094 L22.48499 83.22263 L22.96244 83.37359 L23.07930 83.40649 L23.59852 83.45724 L23.70579 83.46384 L24.25091 83.40774 L24.33894 83.39468 L24.88954 83.22235 L24.95128 83.19976 L25.48634 82.90742 L25.51958 82.88702 L26.01488 82.47927 L26.02217 82.47251 L26.16173 82.30399 L27.67700 83.60924 L27.51212 83.83907 L27.50964 83.84247 L27.50679 83.84569 L26.92040 84.44813 L26.90803 84.45969 L26.89437 84.47027 L26.23306 84.97443 L26.20814 84.99028 L25.49791 85.37503 L25.46143 85.39348 L25.42275 85.40857 L24.67386 85.67675 L24.62398 85.69058 L23.86233 85.82973 L23.80257 85.84015 L23.74139 85.84449 L22.97954 85.85839 L22.91109 85.85591 L22.84284 85.84604 L22.10393 85.73140 L22.03170 85.71307 L21.33488 85.47822 L21.26150 85.45079 L21.19153 85.41515 L20.55334 85.06319 L20.48605 85.01887 L19.92342 84.56361 L19.86112 84.51207 L19.80507 84.45385 L19.33183 83.90171 L19.28362 83.83856 L19.24276 83.77070 L18.87081 83.14065 L18.83880 83.07184 L18.58042 82.37524 L18.55782 82.30800 L18.54254 82.23917 L18.40172 81.49846 L18.39466 81.43505 L18.38027 80.65974 z"/>
<path fill="#000000" stroke="#000000" d="M60.03657 88.82787 L62.00496 88.47412 L62.07947 88.74698 L62.08055 88.75104 L62.08125 88.75529 L62.17939 89.59025 L62.18057 89.60714 L62.18017 89.62441 L62.15479 90.45560 L62.15139 90.48494 L62.00246 91.27883 L61.99379 91.31878 L61.98113 91.35832 L61.71734 92.10877 L61.69663 92.15621 L61.32462 92.83525 L61.29505 92.88821 L61.25986 92.93844 L60.79048 93.53869 L60.74541 93.59026 L60.69473 93.63702 L60.14002 94.13845 L60.08026 94.18297 L59.45875 94.57595 L59.39120 94.61563 L59.31943 94.64749 L58.64394 94.92114 L58.56712 94.94545 L57.85906 95.09532 L57.77978 95.11121 L57.69926 95.11803 L56.97232 95.13744 L56.89290 95.13507 L56.81447 95.12403 L56.09088 95.01570 L56.01728 94.99718 L55.31361 94.75873 L55.24716 94.73390 L55.18410 94.70239 L54.52027 94.34486 L54.46659 94.31038 L53.85559 93.83290 L53.81216 93.79840 L53.77283 93.76012 L53.23593 93.18135 L53.20706 93.14684 L53.18210 93.11020 L52.73781 92.44433 L52.72170 92.41514 L52.37268 91.66829 L52.36418 91.64872 L52.35774 91.62884 L52.12304 90.82854 L52.12120 90.82031 L52.04315 90.26443 L54.00667 89.91155 L54.02015 90.01945 L54.02156 90.02423 L54.22362 90.64215 L54.23982 90.67271 L54.53984 91.21447 L54.57911 91.26261 L54.95723 91.71072 L55.02378 91.76483 L55.45699 92.11019 L55.55096 92.15820 L56.02157 92.39588 L56.50333 92.52718 L56.62573 92.55988 L57.11317 92.58545 L57.24512 92.59097 L57.72464 92.51389 L57.85622 92.49020 L58.31244 92.31134 L58.43244 92.26140 L58.85056 91.98587 L58.94976 91.91587 L59.31640 91.54475 L59.38914 91.46563 L59.68916 91.00705 L59.73450 90.93047 L59.94773 90.39439 L59.96911 90.33221 L60.07937 89.73256 L60.08449 89.69389 L60.08009 89.05237 L60.07944 89.04244 z"/>
</svg>