<?xml version="1.0" encoding="UTF-8"?>
<!-- Generated by jsxcad -->
<!DOCTYPE svg PUBLIC "-//W3C//DTD SVG 1.1 Tiny//EN" "http://www.w3.org/Graphics/SVG/1.1/DTD/svg11-tiny.dtd">
<svg baseProfile="tiny" height="71.70866mm" width="71.52496mm" viewBox="-0.00014 0.16644 71.52496 71.70866" version="1.1" stroke="black" stroke-width=".1" fill="none" xmlns="http://www.w3.org/2000/svg">
<path fill="#000000" stroke="#000000" d="M1.87252 39.25946 L2.51110 39.71604 L2.58855 39.76167 L3.32911 40.12923 L3.39514 40.15982 L3.46214 40.18365 L4.27206 40.44764 L4.32215 40.46040 L5.20314 40.61184 L5.23311 40.61679 L5.26241 40.61907 L6.17165 40.64995 L6.17914 40.64988 L6.18631 40.64920 L6.49002 40.61772 L6.51535 38.61796 L6.27995 38.61778 L6.26279 38.61566 L5.59097 38.49599 L5.52677 38.47573 L4.94038 38.26040 L4.84173 38.20729 L4.35588 37.91710 L4.24094 37.82213 L3.85980 37.47836 L3.74982 37.34017 L3.47203 36.96396 L3.38638 36.78790 L3.21004 36.39279 L3.16499 36.19132 L3.08370 35.78593 L3.08629 35.57535 L3.09953 35.16882 L3.15070 34.96726 L3.25686 34.56820 L3.34972 34.39012 L3.55211 34.00688 L3.85665 33.64056 L3.96873 33.50701 L4.37872 33.18077 L4.49279 33.09171 L5.00773 32.82270 L5.10309 32.77474 L5.71598 32.58709 L5.77383 32.57043 L6.46701 32.48622 L6.47571 32.48538 L6.59297 32.49195 L6.61825 30.49713 L6.00964 30.44690 L5.99497 30.44679 L5.09766 30.49309 L5.06150 30.49590 L5.02456 30.50211 L4.15989 30.67045 L4.10355 30.68516 L3.31139 30.96057 L3.23890 30.98651 L3.16772 31.01991 L2.44883 31.40148 L2.36723 31.45020 L2.28985 31.50758 L1.79276 31.88236 L2.80710 26.64769 L4.62489 21.59604 L7.17168 16.91612 L10.42301 12.65037 L12.11707 11.02057 L12.12134 11.10125 L12.16915 11.88481 L12.18252 11.97371 L12.36371 12.78037 L12.38157 12.85091 L12.40527 12.91795 L12.71060 13.71321 L12.73226 13.76015 L13.16975 14.53968 L13.18479 14.56607 L13.20148 14.59027 L13.75040 15.31577 L13.75517 15.32154 L13.76022 15.32668 L13.97602 15.54269 L15.54486 14.30234 L15.39667 14.11943 L15.38750 14.10477 L15.05713 13.50768 L15.03241 13.44507 L14.83014 12.85404 L14.80923 12.74397 L14.72845 12.18386 L14.72977 12.03476 L14.75657 11.52219 L14.79458 11.34972 L14.91169 10.89696 L14.99444 10.71953 L15.19013 10.33363 L15.31820 10.17171 L15.58178 9.85315 L15.74694 9.72248 L16.07096 9.47662 L16.25971 9.38935 L16.63649 9.22035 L16.83328 9.18025 L17.25840 9.09594 L17.73474 9.10161 L17.90907 9.10450 L18.42073 9.21730 L18.56176 9.24977 L19.09511 9.48013 L19.19243 9.52397 L19.72432 9.88166 L19.77371 9.91608 L20.27586 10.40129 L20.28199 10.40753 L20.35078 10.50272 L21.91574 9.26544 L21.57127 8.76120 L21.56211 8.74973 L20.96077 8.08212 L20.93581 8.05581 L20.90772 8.03104 L20.23218 7.46567 L20.18525 7.43119 L19.47226 6.98958 L19.40645 6.94964 L19.33566 6.91541 L18.58641 6.59759 L18.49716 6.56492 L18.40385 6.54099 L17.87290 6.40931 L18.65515 5.85906 L23.49255 3.46508 L28.58092 1.85721 L33.86339 1.04090 L39.24006 1.04090 L40.55900 1.24472 L40.55041 1.25099 L40.47285 1.32092 L39.89409 1.85128 L39.83342 1.91763 L39.32067 2.56617 L39.27709 2.62445 L39.23992 2.68507 L38.81416 3.42289 L38.79131 3.46927 L38.46096 4.29989 L38.44993 4.32820 L38.44163 4.35639 L38.22340 5.23959 L38.22192 5.24693 L38.22110 5.25409 L38.18910 5.55774 L40.14040 5.99606 L40.18925 5.76578 L40.19487 5.74943 L40.45088 5.11687 L40.48398 5.05826 L40.81591 4.52907 L40.88828 4.44353 L41.27266 4.02820 L41.38934 3.93537 L41.80450 3.63356 L41.96245 3.55454 L42.38797 3.36055 L42.57793 3.31316 L43.00097 3.22233 L43.20740 3.21991 L43.62084 3.22421 L43.82634 3.27030 L44.22134 3.36732 L44.40796 3.45905 L44.77644 3.64544 L44.93147 3.77312 L45.26458 4.05039 L45.56000 4.42410 L45.66749 4.56137 L45.90190 5.02996 L45.96544 5.15999 L46.12216 5.71942 L46.14935 5.82264 L46.20621 6.46108 L46.21055 6.52113 L46.14960 7.21674 L46.14862 7.22543 L46.11795 7.33879 L48.06442 7.77603 L48.23942 7.19096 L48.24256 7.17663 L48.38281 6.28914 L48.38754 6.25318 L48.38911 6.21576 L48.40321 5.33496 L48.40046 5.27680 L48.29482 4.44481 L48.28443 4.36853 L48.26647 4.29197 L48.04181 3.50973 L48.01102 3.41981 L47.97088 3.33224 L47.75921 2.87997 L49.61090 3.46508 L54.44830 5.85906 L58.81148 8.92818 L62.68044 12.65037 L65.93177 16.91612 L66.13185 17.28378 L66.05446 17.26314 L65.95133 17.24670 L65.17512 17.12945 L65.08539 17.12392 L64.25868 17.13225 L64.18596 17.13495 L64.11544 17.14409 L63.27389 17.27620 L63.22346 17.28755 L62.36962 17.55219 L62.34067 17.56138 L62.31351 17.57264 L61.48919 17.95754 L61.48255 17.96100 L61.47646 17.96486 L61.22008 18.13067 L62.10457 19.92437 L62.31445 19.81775 L62.33070 19.81185 L62.98372 19.61377 L63.05012 19.60271 L63.67039 19.52863 L63.78240 19.53122 L64.34702 19.56946 L64.49253 19.60196 L64.98814 19.73545 L65.14883 19.80872 L65.56705 20.01800 L65.72324 20.13606 L66.05962 20.40819 L66.19116 20.56731 L66.44749 20.89173 L66.54069 21.08058 L66.71329 21.44888 L66.75911 21.65172 L66.84551 22.05552 L66.84353 22.25635 L66.83699 22.68970 L66.73175 23.15431 L66.69243 23.32417 L66.47503 23.80088 L66.41376 23.93200 L66.07687 24.40531 L66.01363 24.49131 L65.55254 24.93655 L65.50854 24.97764 L64.92897 25.36711 L64.92159 25.37180 L64.81411 25.41914 L65.69642 27.20840 L66.26160 26.97710 L66.27473 26.97055 L67.05342 26.52227 L67.08437 26.50336 L67.11447 26.48108 L67.80872 25.93884 L67.85226 25.90017 L68.43331 25.29541 L68.48615 25.23941 L68.53444 25.17735 L69.00204 24.51122 L69.05266 24.43079 L69.09560 24.34455 L69.30970 23.90579 L70.29634 26.64769 L71.32390 31.95052 L71.52482 37.30952 L70.91046 42.60661 L69.66950 47.12479 L69.64538 47.07094 L69.59313 46.98052 L69.19490 46.30401 L69.14264 46.23086 L68.61508 45.59431 L68.56715 45.53955 L68.51560 45.49057 L67.88260 44.92051 L67.84200 44.88851 L67.09836 44.39245 L67.07298 44.37576 L67.04713 44.36178 L66.22873 43.96443 L66.22186 43.96145 L66.21502 43.95916 L65.92469 43.86463 L65.08968 45.68190 L65.30474 45.77763 L65.31957 45.78653 L65.88495 46.16864 L65.93539 46.21322 L66.38387 46.64806 L66.45246 46.73665 L66.77866 47.19909 L66.84515 47.33255 L67.05390 47.80145 L67.09831 47.97238 L67.19944 48.42898 L67.20624 48.62464 L67.20700 49.05732 L67.16638 49.25973 L67.07608 49.66321 L66.98822 49.85461 L66.81108 50.22075 L66.68250 50.38418 L66.42346 50.70578 L66.26631 50.83082 L65.92576 51.09889 L65.49873 51.31003 L65.34208 51.38658 L64.83495 51.51828 L64.69455 51.55336 L64.11474 51.59015 L64.00812 51.59526 L63.37183 51.51794 L63.31220 51.50968 L62.64453 51.30523 L62.63624 51.30245 L62.53174 51.24885 L61.69879 53.06163 L62.23460 53.35460 L62.24796 53.36066 L63.08680 53.68263 L63.12099 53.69475 L63.15726 53.70407 L64.01581 53.90126 L64.07328 53.91069 L64.90903 53.98060 L64.98580 53.98632 L65.06442 53.98469 L65.87630 53.92783 L65.97065 53.91644 L66.06466 53.89541 L66.57699 53.77655 L64.36562 57.18338 L60.84235 61.13602 L56.71929 64.54291 L52.08391 67.30231 L47.14258 69.29666 L46.91191 69.35079 L46.96065 69.26613 L47.00319 69.17076 L47.31720 68.45128 L47.34575 68.36604 L47.55151 67.56530 L47.56771 67.49435 L47.57711 67.42387 L47.66714 66.57679 L47.66922 66.52513 L47.63441 65.63190 L47.63302 65.60156 L47.62917 65.57241 L47.47056 64.67659 L47.46893 64.66928 L47.46677 64.66240 L47.37291 64.37186 L45.41148 64.76237 L45.46020 64.99268 L45.46169 65.00990 L45.48415 65.69193 L45.47766 65.75893 L45.38881 66.37726 L45.35734 66.48479 L45.17437 67.02031 L45.10535 67.15247 L44.84822 67.59669 L44.73588 67.73297 L44.42556 68.08283 L44.27113 68.20317 L43.92126 68.45773 L43.73353 68.54364 L43.35386 68.70735 L43.14733 68.74854 L42.74692 68.82001 L42.53913 68.81182 L42.12672 68.79085 L41.93324 68.73700 L41.51632 68.61860 L41.09474 68.39678 L40.94082 68.31487 L40.53655 67.98158 L40.42575 67.88848 L40.05566 67.44064 L39.98895 67.35732 L39.67811 66.79676 L39.64979 66.74363 L39.42347 66.08306 L39.42084 66.07471 L39.40291 65.95865 L37.44633 66.34820 L37.52360 66.95396 L37.52653 66.96834 L37.75817 67.83647 L37.76843 67.87126 L37.78217 67.90610 L38.12641 68.71696 L38.15251 68.76902 L38.58642 69.48672 L38.62685 69.55223 L38.67430 69.61493 L39.19684 70.23890 L39.26144 70.30860 L39.33364 70.37238 L39.70473 70.69496 L36.55172 70.93750 L31.19878 70.52574 L25.96087 69.29666 L21.01954 67.30231 L17.20275 65.03021 L17.23658 65.02476 L17.33744 64.99768 L18.09394 64.78801 L18.17812 64.75645 L18.92948 64.41151 L18.99477 64.37937 L19.05541 64.34225 L19.76981 63.87826 L19.81123 63.84731 L20.48277 63.25731 L20.50545 63.23711 L20.52565 63.21575 L21.12118 62.52800 L21.12583 62.52213 L21.12981 62.51612 L21.29622 62.26012 L19.75681 60.98344 L19.60871 61.16642 L19.59627 61.17844 L19.08092 61.62573 L19.02481 61.66293 L18.48875 61.98365 L18.38543 62.02700 L17.85436 62.22247 L17.70824 62.25217 L17.20130 62.33252 L17.02470 62.33120 L16.55748 62.31078 L16.36672 62.26673 L15.94857 62.15554 L15.76356 62.06394 L15.39717 61.87235 L15.23502 61.73797 L14.92716 61.47214 L14.80256 61.30566 L14.55891 60.97225 L14.47877 60.78810 L14.30792 60.38980 L14.21443 59.92268 L14.18101 59.75156 L14.18497 59.22763 L14.18741 59.08293 L14.30185 58.51335 L14.32450 58.40903 L14.56379 57.81440 L14.58719 57.75893 L14.95740 57.16688 L14.96222 57.15958 L15.04103 57.07251 L13.50542 55.79899 L13.08381 56.24077 L13.07450 56.25211 L12.54650 56.97911 L12.52595 57.00900 L12.50757 57.04162 L12.09500 57.81994 L12.07103 57.87301 L11.78731 58.66224 L11.76192 58.73492 L11.74316 58.81128 L11.58806 59.61023 L11.57466 59.70432 L11.57065 59.80057 L11.55244 60.34101 L8.73783 57.18338 L5.82248 52.69201 L3.60677 47.75401 L2.19298 42.60661 L1.79854 39.20566 z"/>
<path fill="#000000" stroke="#000000" d="M65.08968 45.68190 L65.92469 43.86463 L66.21502 43.95916 L66.22186 43.96145 L66.22873 43.96443 L67.04713 44.36178 L67.07298 44.37576 L67.09836 44.39245 L67.84200 44.88851 L67.88260 44.92051 L68.51560 45.49057 L68.56715 45.53955 L68.61508 45.59431 L69.14264 46.23086 L69.19490 46.30401 L69.59313 46.98052 L69.64538 47.07094 L69.68862 47.16746 L69.96090 47.87425 L69.99666 47.98547 L70.01980 48.10062 L70.15538 48.81578 L70.16611 48.94096 L70.16764 49.64189 L70.16321 49.77277 L70.14236 49.90208 L70.00836 50.57456 L69.97075 50.70289 L69.70981 51.32733 L69.65662 51.45035 L69.58813 51.56556 L69.20199 52.12784 L69.12032 52.23192 L69.02664 52.32508 L68.53022 52.80926 L68.42989 52.88800 L67.82859 53.28051 L67.72561 53.34296 L67.61684 53.39329 L66.93275 53.68345 L66.82874 53.71814 L66.06466 53.89541 L65.97065 53.91644 L65.87630 53.92783 L65.06442 53.98469 L64.98580 53.98632 L64.90903 53.98060 L64.07328 53.91069 L64.01581 53.90126 L63.15726 53.70407 L63.12099 53.69475 L63.08680 53.68263 L62.24796 53.36066 L62.23460 53.35460 L61.69879 53.06163 L62.53174 51.24885 L62.63624 51.30245 L62.64453 51.30523 L63.31220 51.50968 L63.37183 51.51794 L64.00812 51.59526 L64.11474 51.59015 L64.69455 51.55336 L64.83495 51.51828 L65.34208 51.38658 L65.49873 51.31003 L65.92576 51.09889 L66.26631 50.83082 L66.42346 50.70578 L66.68250 50.38418 L66.81108 50.22075 L66.98822 49.85461 L67.07608 49.66321 L67.16638 49.25973 L67.20700 49.05732 L67.20624 48.62464 L67.19944 48.42898 L67.09831 47.97238 L67.05390 47.80145 L66.84515 47.33255 L66.77866 47.19909 L66.45246 46.73665 L66.38387 46.64806 L65.93539 46.21322 L65.88495 46.16864 L65.31957 45.78653 L65.30474 45.77763 z"/>
<path fill="#000000" stroke="#000000" d="M69.80434 21.87334 L69.73005 22.58756 L69.71363 22.70687 L69.68414 22.82304 L69.47821 23.53701 L69.43958 23.63963 L69.09560 24.34455 L69.05266 24.43079 L69.00204 24.51122 L68.53444 25.17735 L68.48615 25.23941 L68.43331 25.29541 L67.85226 25.90017 L67.80872 25.93884 L67.11447 26.48108 L67.08437 26.50336 L67.05342 26.52227 L66.27473 26.97055 L66.26160 26.97710 L65.69642 27.20840 L64.81411 25.41914 L64.92159 25.37180 L64.92897 25.36711 L65.50854 24.97764 L65.55254 24.93655 L66.01363 24.49131 L66.07687 24.40531 L66.41376 23.93200 L66.47503 23.80088 L66.69243 23.32417 L66.73175 23.15431 L66.83699 22.68970 L66.84353 22.25635 L66.84551 22.05552 L66.75911 21.65172 L66.71329 21.44888 L66.54069 21.08058 L66.44749 20.89173 L66.19116 20.56731 L66.05962 20.40819 L65.72324 20.13606 L65.56705 20.01800 L65.14883 19.80872 L64.98814 19.73545 L64.49253 19.60196 L64.34702 19.56946 L63.78240 19.53122 L63.67039 19.52863 L63.05012 19.60271 L62.98372 19.61377 L62.33070 19.81185 L62.31445 19.81775 L62.10457 19.92437 L61.22008 18.13067 L61.47646 17.96486 L61.48255 17.96100 L61.48919 17.95754 L62.31351 17.57264 L62.34067 17.56138 L62.36962 17.55219 L63.22346 17.28755 L63.27389 17.27620 L64.11544 17.14409 L64.18596 17.13495 L64.25868 17.13225 L65.08539 17.12392 L65.17512 17.12945 L65.95133 17.24670 L66.05446 17.26314 L66.15665 17.29040 L66.87698 17.52452 L66.98586 17.56686 L67.08984 17.62148 L67.73051 17.96700 L67.83446 18.03757 L68.37958 18.47819 L68.47840 18.56413 L68.56564 18.66181 L69.00326 19.18972 L69.07918 19.29980 L69.39948 19.89598 L69.46146 20.01482 L69.50773 20.14060 L69.70086 20.79479 L69.73018 20.92379 L69.74346 21.05524 L69.80645 21.74582 z"/>
<path fill="#000000" stroke="#000000" d="M48.38911 6.21576 L48.38754 6.25318 L48.38281 6.28914 L48.24256 7.17663 L48.23942 7.19096 L48.06442 7.77603 L46.11795 7.33879 L46.14862 7.22543 L46.14960 7.21674 L46.21055 6.52113 L46.20621 6.46108 L46.14935 5.82264 L46.12216 5.71942 L45.96544 5.15999 L45.90190 5.02996 L45.66749 4.56137 L45.56000 4.42410 L45.26458 4.05039 L44.93147 3.77312 L44.77644 3.64544 L44.40796 3.45905 L44.22134 3.36732 L43.82634 3.27030 L43.62084 3.22421 L43.20740 3.21991 L43.00097 3.22233 L42.57793 3.31316 L42.38797 3.36055 L41.96245 3.55454 L41.80450 3.63356 L41.38934 3.93537 L41.27266 4.02820 L40.88828 4.44353 L40.81591 4.52907 L40.48398 5.05826 L40.45088 5.11687 L40.19487 5.74943 L40.18925 5.76578 L40.14040 5.99606 L38.18910 5.55774 L38.22110 5.25409 L38.22192 5.24693 L38.22340 5.23959 L38.44163 4.35639 L38.44993 4.32820 L38.46096 4.29989 L38.79131 3.46927 L38.81416 3.42289 L39.23992 2.68507 L39.27709 2.62445 L39.32067 2.56617 L39.83342 1.91763 L39.89409 1.85128 L40.47285 1.32092 L40.55041 1.25099 L40.63581 1.18860 L41.27042 0.77512 L41.37175 0.71699 L41.47956 0.67038 L42.15081 0.38886 L42.27102 0.35230 L42.95626 0.20485 L43.08520 0.18194 L43.21601 0.17541 L43.90166 0.16644 L44.03501 0.17651 L44.70009 0.30171 L44.83150 0.32812 L44.95844 0.37112 L45.58880 0.63172 L45.70759 0.68992 L45.81822 0.76216 L46.39516 1.14688 L46.49306 1.22861 L47.00217 1.73501 L47.08470 1.82272 L47.15657 1.91864 L47.58281 2.52731 L47.63839 2.62182 L47.97088 3.33224 L48.01102 3.41981 L48.04181 3.50973 L48.26647 4.29197 L48.28443 4.36853 L48.29482 4.44481 L48.40046 5.27680 L48.40321 5.33496 z"/>
<path fill="#000000" stroke="#000000" d="M14.72845 12.18386 L14.80923 12.74397 L14.83014 12.85404 L15.03241 13.44507 L15.05713 13.50768 L15.38750 14.10477 L15.39667 14.11943 L15.54486 14.30234 L13.97602 15.54269 L13.76022 15.32668 L13.75517 15.32154 L13.75040 15.31577 L13.20148 14.59027 L13.18479 14.56607 L13.16975 14.53968 L12.73226 13.76015 L12.71060 13.71321 L12.40527 12.91795 L12.38157 12.85091 L12.36371 12.78037 L12.18252 11.97371 L12.16915 11.88481 L12.12134 11.10125 L12.11582 10.99697 L12.12110 10.89133 L12.19926 10.13795 L12.21787 10.02262 L12.24952 9.90951 L12.45328 9.21072 L12.50054 9.09430 L12.81729 8.46903 L12.88065 8.35441 L12.95791 8.24865 L13.38253 7.71024 L13.47428 7.61295 L13.99021 7.17497 L14.09344 7.08949 L14.20676 7.01791 L14.80603 6.69213 L14.92603 6.63646 L15.05180 6.59596 L15.71389 6.38982 L15.83903 6.36519 L16.55298 6.28835 L16.67308 6.27943 L16.79285 6.28396 L17.53411 6.33588 L17.64254 6.35217 L18.40385 6.54099 L18.49716 6.56492 L18.58641 6.59759 L19.33566 6.91541 L19.40645 6.94964 L19.47226 6.98958 L20.18525 7.43119 L20.23218 7.46567 L20.90772 8.03104 L20.93581 8.05581 L20.96077 8.08212 L21.56211 8.74973 L21.57127 8.76120 L21.91574 9.26544 L20.35078 10.50272 L20.28199 10.40753 L20.27586 10.40129 L19.77371 9.91608 L19.72432 9.88166 L19.19243 9.52397 L19.09511 9.48013 L18.56176 9.24977 L18.42073 9.21730 L17.90907 9.10450 L17.73474 9.10161 L17.25840 9.09594 L16.83328 9.18025 L16.63649 9.22035 L16.25971 9.38935 L16.07096 9.47662 L15.74694 9.72248 L15.58178 9.85315 L15.31820 10.17171 L15.19013 10.33363 L14.99444 10.71953 L14.91169 10.89696 L14.79458 11.34972 L14.75657 11.52219 L14.72977 12.03476 z"/>
<path fill="#000000" stroke="#000000" d="M3.08370 35.78593 L3.16499 36.19132 L3.21004 36.39279 L3.38638 36.78790 L3.47203 36.96396 L3.74982 37.34017 L3.85980 37.47836 L4.24094 37.82213 L4.35588 37.91710 L4.84173 38.20729 L4.94038 38.26040 L5.52677 38.47573 L5.59097 38.49599 L6.26279 38.61566 L6.27995 38.61778 L6.51535 38.61796 L6.49002 40.61772 L6.18631 40.64920 L6.17914 40.64988 L6.17165 40.64995 L5.26241 40.61907 L5.23311 40.61679 L5.20314 40.61184 L4.32215 40.46040 L4.27206 40.44764 L3.46214 40.18365 L3.39514 40.15982 L3.32911 40.12923 L2.58855 39.76167 L2.51110 39.71604 L1.87252 39.25946 L1.78806 39.19804 L1.70936 39.12738 L1.17358 38.59200 L1.09575 38.50488 L1.02786 38.40903 L0.61362 37.81051 L0.55299 37.70046 L0.26703 37.06051 L0.21795 36.93910 L0.18451 36.81247 L0.03395 36.14349 L0.01622 36.01095 L0.00119 35.33435 L-0.00014 35.20032 L0.01567 35.06723 L0.14029 34.39661 L0.17267 34.26834 L0.22047 34.14517 L0.47757 33.50115 L0.53729 33.38846 L0.92747 32.78564 L0.99622 32.68676 L1.07519 32.59660 L1.58257 32.05371 L1.66354 31.97978 L2.28985 31.50758 L2.36723 31.45020 L2.44883 31.40148 L3.16772 31.01991 L3.23890 30.98651 L3.31139 30.96057 L4.10355 30.68516 L4.15989 30.67045 L5.02456 30.50211 L5.06150 30.49590 L5.09766 30.49309 L5.99497 30.44679 L6.00964 30.44690 L6.61825 30.49713 L6.59297 32.49195 L6.47571 32.48538 L6.46701 32.48622 L5.77383 32.57043 L5.71598 32.58709 L5.10309 32.77474 L5.00773 32.82270 L4.49279 33.09171 L4.37872 33.18077 L3.96873 33.50701 L3.85665 33.64056 L3.55211 34.00688 L3.34972 34.39012 L3.25686 34.56820 L3.15070 34.96726 L3.09953 35.16882 L3.08629 35.57535 z"/>
<path fill="#000000" stroke="#000000" d="M11.54424 60.58450 L11.57065 59.80057 L11.57466 59.70432 L11.58806 59.61023 L11.74316 58.81128 L11.76192 58.73492 L11.78731 58.66224 L12.07103 57.87301 L12.09500 57.81994 L12.50757 57.04162 L12.52595 57.00900 L12.54650 56.97911 L13.07450 56.25211 L13.08381 56.24077 L13.50542 55.79899 L15.04103 57.07251 L14.96222 57.15958 L14.95740 57.16688 L14.58719 57.75893 L14.56379 57.81440 L14.32450 58.40903 L14.30185 58.51335 L14.18741 59.08293 L14.18497 59.22763 L14.18101 59.75156 L14.21443 59.92268 L14.30792 60.38980 L14.47877 60.78810 L14.55891 60.97225 L14.80256 61.30566 L14.92716 61.47214 L15.23502 61.73797 L15.39717 61.87235 L15.76356 62.06394 L15.94857 62.15554 L16.36672 62.26673 L16.55748 62.31078 L17.02470 62.33120 L17.20130 62.33252 L17.70824 62.25217 L17.85436 62.22247 L18.38543 62.02700 L18.48875 61.98365 L19.02481 61.66293 L19.08092 61.62573 L19.59627 61.17844 L19.60871 61.16642 L19.75681 60.98344 L21.29622 62.26012 L21.12981 62.51612 L21.12583 62.52213 L21.12118 62.52800 L20.52565 63.21575 L20.50545 63.23711 L20.48277 63.25731 L19.81123 63.84731 L19.76981 63.87826 L19.05541 64.34225 L18.99477 64.37937 L18.92948 64.41151 L18.17812 64.75645 L18.09394 64.78801 L17.33744 64.99768 L17.23658 65.02476 L17.13216 65.04157 L16.37900 65.12175 L16.26231 65.12752 L16.14510 65.12008 L15.41921 65.06605 L15.29551 65.04403 L14.61804 64.86420 L14.49276 64.82606 L14.37325 64.77247 L13.75832 64.46908 L13.64409 64.39955 L13.10840 63.98596 L13.00333 63.90275 L12.90976 63.80679 L12.46650 63.28835 L12.38709 63.18254 L12.32134 63.06795 L11.98205 62.46318 L11.93194 62.34589 L11.70834 61.66352 L11.67465 61.54790 L11.65417 61.42980 L11.55084 60.69394 z"/>
<path fill="#000000" stroke="#000000" d="M45.41148 64.76237 L47.37291 64.37186 L47.46677 64.66240 L47.46893 64.66928 L47.47056 64.67659 L47.62917 65.57241 L47.63302 65.60156 L47.63441 65.63190 L47.66922 66.52513 L47.66714 66.57679 L47.57711 67.42387 L47.56771 67.49435 L47.55151 67.56530 L47.34575 68.36604 L47.31720 68.45128 L47.00319 69.17076 L46.96065 69.26613 L46.90788 69.35779 L46.49543 69.99307 L46.42637 70.08730 L46.34672 70.17361 L45.84727 70.70312 L45.75221 70.78528 L45.18560 71.19791 L45.07703 71.27114 L44.96010 71.33015 L44.33698 71.61634 L44.21101 71.66121 L43.55228 71.81643 L43.42145 71.84557 L43.28798 71.85773 L42.60610 71.87510 L42.47390 71.87007 L42.34349 71.84889 L41.66012 71.73114 L41.53748 71.69613 L40.86677 71.43965 L40.75577 71.39293 L40.65118 71.33440 L40.01475 70.95083 L39.92562 70.88697 L39.33364 70.37238 L39.26144 70.30860 L39.19684 70.23890 L38.67430 69.61493 L38.62685 69.55223 L38.58642 69.48672 L38.15251 68.76902 L38.12641 68.71696 L37.78217 67.90610 L37.76843 67.87126 L37.75817 67.83647 L37.52653 66.96834 L37.52360 66.95396 L37.44633 66.34820 L39.40291 65.95865 L39.42084 66.07471 L39.42347 66.08306 L39.64979 66.74363 L39.67811 66.79676 L39.98895 67.35732 L40.05566 67.44064 L40.42575 67.88848 L40.53655 67.98158 L40.94082 68.31487 L41.09474 68.39678 L41.51632 68.61860 L41.93324 68.73700 L42.12672 68.79085 L42.53913 68.81182 L42.74692 68.82001 L43.14733 68.74854 L43.35386 68.70735 L43.73353 68.54364 L43.92126 68.45773 L44.27113 68.20317 L44.42556 68.08283 L44.73588 67.73297 L44.84822 67.59669 L45.10535 67.15247 L45.17437 67.02031 L45.35734 66.48479 L45.38881 66.37726 L45.47766 65.75893 L45.48415 65.69193 L45.46169 65.00990 L45.46020 64.99268 z"/>
</svg>