<?xml version="1.0" encoding="UTF-8"?>
<!-- Generated by jsxcad -->
<!DOCTYPE svg PUBLIC "-//W3C//DTD SVG 1.1 Tiny//EN" "http://www.w3.org/Graphics/SVG/1.1/DTD/svg11-tiny.dtd">
<svg baseProfile="tiny" height="30.47976mm" width="29.55287mm" viewBox="-0.00071 0.10781 29.55287 30.47976" version="1.1" stroke="black" stroke-width=".1" fill="none" xmlns="http://www.w3.org/2000/svg">
<path fill="#000000" stroke="#000000" d="M29.55176 15.50051 L29.48864 16.22213 L29.47898 16.30249 L29.46050 16.38128 L29.27237 17.08080 L29.24530 17.15613 L28.93090 17.81647 L28.89699 17.88612 L28.85578 17.95151 L28.42723 18.55432 L28.38180 18.61120 L28.33073 18.66255 L27.79773 19.18759 L27.74645 19.22955 L27.11770 19.67115 L27.06888 19.70327 L27.01750 19.72984 L26.31252 20.06801 L26.26745 20.08588 L25.49843 20.31619 L25.46214 20.32668 L25.42561 20.33348 L24.61564 20.44259 L24.59024 20.44478 L24.56527 20.44459 L23.73862 20.43213 L23.72600 20.43089 L22.89212 20.29070 L23.24215 18.31086 L23.72892 18.36774 L23.75124 18.36698 L24.38101 18.31857 L24.43038 18.30686 L25.00685 18.14950 L25.07612 18.11739 L25.58064 17.86510 L25.65879 17.80659 L26.08257 17.47623 L26.15792 17.39036 L26.48998 16.99803 L26.55054 16.88835 L26.78582 16.45162 L26.82286 16.32467 L26.95689 15.85658 L26.99148 15.37091 L27.00022 15.23896 L26.92895 14.74803 L26.90967 14.62424 L26.73226 14.14183 L26.69092 14.03534 L26.40610 13.57970 L26.35276 13.49793 L25.96532 13.08795 L25.91126 13.03403 L25.42369 12.68855 L25.38133 12.66063 L24.80633 12.39922 L24.78563 12.39084 L24.30887 12.27738 L24.65890 10.29753 L25.49030 10.45177 L25.50258 10.45493 L26.28339 10.72666 L26.30691 10.73505 L26.33002 10.74582 L27.05348 11.12604 L27.08546 11.14494 L27.11595 11.16725 L27.75939 11.64727 L27.79560 11.67951 L28.34189 12.23890 L28.38104 12.28148 L28.41589 12.32840 L28.85511 12.95881 L28.88890 13.01581 L29.20956 13.69178 L29.23992 13.75753 L29.26310 13.82654 L29.45898 14.53974 L29.47527 14.61530 L29.48324 14.69235 L29.55216 15.42046 z"/>
<path fill="#000000" stroke="#000000" d="M22.16519 5.68884 L22.16399 5.72660 L22.15920 5.76345 L22.01345 6.56763 L22.00771 6.59247 L21.99983 6.61617 L21.73328 7.39876 L21.72821 7.41039 L21.33792 8.16051 L19.56224 7.21750 L19.76633 6.77193 L19.77248 6.75047 L19.92047 6.13641 L19.92454 6.08585 L19.95245 5.48893 L19.94324 5.41314 L19.85868 4.85543 L19.82709 4.76305 L19.64337 4.25810 L19.58489 4.15997 L19.31396 3.72318 L19.22828 3.63177 L18.88529 3.27338 L18.77592 3.19903 L18.37190 2.92729 L17.92051 2.74475 L17.79767 2.69577 L17.30867 2.61232 L17.18496 2.59253 L16.67136 2.61267 L16.55731 2.61919 L16.03608 2.74976 L15.94186 2.77532 L15.43245 3.01759 L15.36450 3.05240 L14.88560 3.40981 L14.84599 3.44150 L14.42013 3.90799 L14.40579 3.92510 L14.15094 4.34371 L12.37526 3.40070 L12.77815 2.65727 L12.78495 2.64656 L13.28404 1.98746 L13.29926 1.96766 L13.31662 1.94900 L13.90125 1.37789 L13.92909 1.35328 L13.95970 1.33115 L14.61462 0.86691 L14.65645 0.84240 L15.35695 0.49503 L15.40952 0.47091 L15.46489 0.45221 L16.19996 0.22859 L16.26460 0.21401 L17.00648 0.11722 L17.07838 0.10859 L17.15118 0.10781 L17.89004 0.14120 L17.96694 0.14898 L18.04270 0.16514 L18.75662 0.32391 L18.83266 0.34895 L19.49972 0.63134 L19.57319 0.66529 L19.64245 0.70715 L20.24998 1.10165 L20.31330 1.15062 L20.84466 1.65318 L20.90047 1.70689 L20.94998 1.76625 L21.39142 2.35967 L21.43154 2.42043 L21.46466 2.48483 L21.79993 3.15367 L21.82405 3.21538 L22.05044 3.94960 L22.06595 4.00595 L22.07541 4.06302 L22.17992 4.83789 L22.18303 4.88628 z"/>
<path fill="#000000" stroke="#000000" d="M2.53814 9.36664 L2.61121 9.92598 L2.62333 10.00136 L2.81532 10.56724 L2.83323 10.61471 L3.14535 11.16383 L3.15720 11.18276 L3.47662 11.55445 L2.03121 12.95199 L1.44860 12.33916 L1.44051 12.32939 L0.96781 11.65111 L0.95369 11.63052 L0.94129 11.60824 L0.57871 10.87579 L0.56390 10.84171 L0.55231 10.80575 L0.31308 10.03946 L0.30269 9.99210 L0.18870 9.21857 L0.18199 9.16111 L0.18131 9.10267 L0.19570 8.33448 L0.20179 8.26849 L0.33890 7.53300 L0.35291 7.46195 L0.37465 7.39247 L0.63464 6.70006 L0.66580 6.62932 L0.70457 6.56226 L1.07610 5.93229 L1.12341 5.86771 L1.59805 5.32051 L1.65302 5.26111 L1.71423 5.20817 L2.27711 4.75222 L2.34324 4.70712 L2.98536 4.35699 L3.05369 4.32050 L3.12543 4.29175 L3.82620 4.05521 L3.89637 4.03582 L3.96786 4.02421 L4.70755 3.91194 L4.77370 3.90807 L5.54195 3.91955 L5.60033 3.92220 L5.65752 3.93083 L6.42679 4.07079 L6.47377 4.08278 L7.23157 4.34766 L7.26711 4.36046 L7.30068 4.37640 L8.02051 4.76344 L8.04236 4.77657 L8.06247 4.79139 L8.72445 5.28665 L8.73394 5.29506 L9.32681 5.89798 L7.88141 7.29552 L7.52068 6.96377 L7.50217 6.95129 L6.96386 6.62086 L6.91702 6.60137 L6.35792 6.39043 L6.28299 6.37578 L5.72643 6.28393 L5.62882 6.28544 L5.09181 6.30419 L4.98041 6.32949 L4.48129 6.45225 L4.36789 6.50551 L3.92107 6.72102 L3.81658 6.80207 L3.43333 7.10239 L3.12027 7.47531 L3.03575 7.57702 L2.80533 8.01633 L2.74829 8.12787 L2.60879 8.62258 L2.57976 8.73306 L2.54294 9.26913 z"/>
<path fill="#000000" stroke="#000000" d="M7.13268 26.09029 L7.12088 26.09494 L6.32921 26.33320 L6.30524 26.34021 L6.28021 26.34506 L5.47131 26.46182 L5.43432 26.46529 L5.39654 26.46512 L4.59385 26.45411 L4.54561 26.44926 L3.77499 26.31698 L3.71830 26.30548 L3.66255 26.28795 L2.93694 26.03531 L2.87613 26.00899 L2.21977 25.64990 L2.15660 25.61449 L2.09733 25.57222 L1.52015 25.10974 L1.46261 25.05812 L1.41094 25.00042 L0.92780 24.45135 L0.88114 24.38630 L0.50872 23.76500 L0.46937 23.69427 L0.43809 23.61963 L0.17986 22.94285 L0.15756 22.86597 L0.02455 22.14679 L0.01112 22.07050 L0.00611 21.99337 L-0.00071 21.25379 L0.00269 21.18107 L0.01390 21.10952 L0.13729 20.37160 L0.15419 20.30753 L0.40407 19.58097 L0.42475 19.52631 L0.45075 19.47463 L0.82306 18.78707 L0.84906 18.74615 L1.33653 18.10834 L1.35975 18.07854 L1.38534 18.05160 L1.97709 17.48788 L1.99637 17.47120 L2.01671 17.45669 L2.69332 16.98161 L2.70426 16.97521 L3.46169 16.59930 L4.34028 18.40772 L3.91278 18.64735 L3.89516 18.66107 L3.41368 19.06989 L3.38058 19.10834 L3.00619 19.57408 L2.96896 19.64074 L2.70854 20.14111 L2.67961 20.23436 L2.53039 20.75055 L2.51978 20.86430 L2.48119 21.37684 L2.49653 21.50118 L2.56236 21.99287 L2.60688 22.11739 L2.77309 22.57505 L3.03013 22.98857 L3.10050 23.10054 L3.44634 23.45619 L3.53461 23.54510 L3.96138 23.83155 L4.05735 23.89352 L4.55537 24.09526 L4.64655 24.13015 L5.20087 24.23470 L5.27628 24.24663 L5.87381 24.24019 L5.92449 24.23793 L6.54346 24.11211 L6.56514 24.10674 L7.01775 23.91879 L7.89634 25.72721 z"/>
<path fill="#000000" stroke="#000000" d="M19.89090 24.38556 L21.88228 24.10856 L21.99171 24.94703 L21.99248 24.95969 L21.97454 25.78623 L21.97381 25.81120 L21.97069 25.83650 L21.83187 26.64191 L21.82374 26.67817 L21.81191 26.71404 L21.55349 27.47407 L21.53398 27.51846 L21.17011 28.21053 L21.14166 28.26089 L21.10777 28.30850 L20.64335 28.92059 L20.59953 28.97030 L20.05526 29.48363 L20.00206 29.53277 L19.94354 29.57608 L19.32539 29.98218 L19.25853 30.02096 L19.18768 30.05228 L18.51622 30.34218 L18.43995 30.36647 L17.73398 30.52875 L17.65456 30.54432 L17.57391 30.55102 L16.85046 30.58757 L16.77045 30.58502 L16.04536 30.48937 L15.96866 30.47858 L15.89375 30.45952 L15.18823 30.23755 L15.12012 30.21185 L15.05553 30.17909 L14.39181 29.83379 L14.33609 29.79793 L13.72226 29.33583 L13.67665 29.29927 L13.63554 29.25859 L13.09661 28.69210 L13.06572 28.65472 L12.60969 27.99407 L12.58852 27.96278 L12.57080 27.93012 L12.21744 27.19318 L12.20753 27.16969 L12.20001 27.14587 L11.95717 26.35560 L11.95446 26.34321 L11.83090 25.50670 L13.82228 25.22970 L13.91814 25.71032 L13.92575 25.73131 L14.16584 26.31554 L14.19218 26.35889 L14.51950 26.85884 L14.57140 26.91484 L14.96686 27.31709 L15.04661 27.37341 L15.49146 27.67478 L15.59637 27.72001 L16.07193 27.91504 L16.19492 27.93886 L16.68290 28.02813 L16.81508 28.02425 L17.30170 28.00754 L17.77440 27.89081 L17.90263 27.85847 L18.34771 27.63940 L18.45954 27.58292 L18.86382 27.26551 L18.95239 27.19337 L19.29811 26.78202 L19.35946 26.70608 L19.63013 26.21117 L19.66477 26.14313 L19.84322 25.57283 L19.85673 25.52393 L19.92826 24.89636 L19.92985 24.87409 z"/>
</svg>