<?xml version="1.0" encoding="UTF-8"?>
<!-- Generated by jsxcad -->
<!DOCTYPE svg PUBLIC "-//W3C//DTD SVG 1.1 Tiny//EN" "http://www.w3.org/Graphics/SVG/1.1/DTD/svg11-tiny.dtd">
<svg baseProfile="tiny" height="71.67574mm" width="71.48176mm" viewBox="0.00048 0.41428 71.48176 71.67574" version="1.1" stroke="black" stroke-width=".1" fill="none" xmlns="http://www.w3.org/2000/svg">
<path fill="#000000" stroke="#000000" d="M1.71476 38.65514 L1.79805 38.71813 L2.42798 39.18657 L2.50457 39.23365 L3.23812 39.61500 L3.30357 39.64681 L3.37011 39.67189 L4.17495 39.95098 L4.22480 39.96468 L5.10280 40.13258 L5.13267 40.13808 L5.16193 40.14092 L6.07042 40.18880 L6.07791 40.18887 L6.08510 40.18832 L6.38934 40.16253 L6.45208 38.16359 L6.21672 38.15901 L6.19960 38.15657 L5.53014 38.02435 L5.46633 38.00289 L4.88407 37.77664 L4.78642 37.72169 L4.30610 37.42246 L4.19295 37.32536 L3.81831 36.97451 L3.71094 36.83429 L3.44023 36.45295 L3.35789 36.27532 L3.18896 35.87698 L3.14769 35.67470 L3.07400 35.26786 L3.08053 35.05737 L3.10138 34.65116 L3.15630 34.45059 L3.26991 34.05358 L3.36608 33.87727 L3.57561 33.49789 L3.88695 33.13733 L4.00151 33.00589 L4.41753 32.68738 L4.53325 32.60047 L5.05312 32.34114 L5.14937 32.29498 L5.76566 32.11882 L5.82381 32.10324 L6.51844 32.03202 L6.52716 32.03135 L6.64428 32.04010 L6.70686 30.04610 L6.09930 29.98450 L6.08463 29.98411 L5.18661 30.01363 L5.15040 30.01576 L5.11336 30.02127 L4.24569 30.17341 L4.18908 30.18707 L3.39191 30.44761 L3.31895 30.47219 L3.24715 30.50425 L2.52126 30.87230 L2.43876 30.91949 L2.36032 30.97541 L1.94355 31.27757 L1.99052 30.40685 L4.02977 23.06400 L7.58739 16.36978 L12.49498 10.60616 L12.57571 10.54485 L12.57549 10.54668 L12.56824 10.65219 L12.57181 10.75656 L12.60496 11.54088 L12.61666 11.63001 L12.78273 12.43992 L12.79926 12.51078 L12.82171 12.57825 L13.11210 13.37908 L13.13288 13.42642 L13.55571 14.21400 L13.57026 14.24067 L13.58649 14.26517 L14.12174 15.00082 L14.12641 15.00668 L14.13136 15.01191 L14.34308 15.23191 L15.93485 14.02113 L15.79011 13.83548 L15.78121 13.82065 L15.46207 13.21749 L15.43853 13.15442 L15.24735 12.55972 L15.22850 12.44927 L15.15821 11.88775 L15.16231 11.73870 L15.19870 11.22672 L15.23993 11.05499 L15.36549 10.60450 L15.45154 10.42864 L15.65442 10.04648 L15.78549 9.88698 L16.05499 9.57341 L16.22256 9.44585 L16.55113 9.20609 L16.74148 9.12237 L17.12135 8.96045 L17.31886 8.92404 L17.74548 8.84770 L18.22163 8.86227 L18.39588 8.86842 L18.90534 8.99078 L19.04574 9.02588 L19.57468 9.26618 L19.67117 9.31183 L20.19627 9.67940 L20.24501 9.71474 L20.73800 10.20926 L20.74401 10.21561 L20.81100 10.31207 L22.39883 9.10428 L22.06385 8.59368 L22.05491 8.58205 L21.46617 7.90331 L21.44170 7.87653 L21.41408 7.85125 L20.74923 7.27333 L20.70296 7.23798 L19.99836 6.78311 L19.93330 6.74195 L19.86316 6.70640 L19.11999 6.37462 L19.03137 6.34029 L18.93852 6.31462 L18.35285 6.15768 L18.48176 6.05978 L25.37751 2.87095 L32.76057 1.24939 L40.30609 1.24939 L41.17874 1.44105 L41.10131 1.50828 L40.51272 2.02772 L40.45083 2.09292 L39.92603 2.73176 L39.88137 2.78922 L39.84307 2.84912 L39.40358 3.57886 L39.37988 3.62480 L39.03405 4.44910 L39.02248 4.47719 L39.01366 4.50523 L38.77895 5.38418 L38.77733 5.39150 L38.77638 5.39864 L38.73870 5.70164 L40.68146 6.17638 L40.73461 5.94706 L40.74053 5.93081 L41.00833 5.30316 L41.04252 5.24517 L41.38429 4.72228 L41.45825 4.63811 L41.85033 4.23004 L41.96873 4.13942 L42.38947 3.84543 L42.54886 3.76937 L42.97794 3.58337 L43.16875 3.53955 L43.59341 3.45664 L43.79986 3.45809 L44.21315 3.47012 L44.41774 3.52004 L44.81086 3.62444 L44.99573 3.71965 L45.36066 3.91290 L45.51328 4.04345 L45.84114 4.32691 L46.12952 4.70607 L46.23442 4.84534 L46.46002 5.31823 L46.52113 5.44942 L46.66735 6.01168 L46.69261 6.11539 L46.73751 6.75479 L46.74073 6.81491 L46.66678 7.50925 L46.66563 7.51792 L46.63285 7.63070 L48.57080 8.10427 L48.75671 7.52257 L48.76012 7.50831 L48.91695 6.62359 L48.92235 6.58773 L48.92461 6.55034 L48.95519 5.66997 L48.95354 5.61176 L48.86347 4.77794 L48.85451 4.70148 L48.83799 4.62460 L48.62800 3.83829 L48.59889 3.74781 L48.56040 3.65951 L48.34407 3.17380 L54.58491 6.05978 L60.57169 10.60616 L65.47928 16.36978 L66.29871 17.91168 L66.27743 17.90787 L65.50354 17.77612 L65.41394 17.76891 L64.58721 17.76178 L64.51445 17.76312 L64.44378 17.77094 L63.59990 17.88728 L63.54926 17.89769 L62.69063 18.14631 L62.66151 18.15496 L62.63415 18.16570 L61.80277 18.53511 L61.79606 18.53845 L61.78990 18.54220 L61.53046 18.70318 L62.13944 19.99869 L62.38125 20.51312 L62.59308 20.41044 L62.60945 20.40485 L63.26605 20.21902 L63.33265 20.20920 L63.95420 20.14673 L64.06614 20.15141 L64.62994 20.20021 L64.77483 20.23543 L65.26785 20.37817 L65.42714 20.45443 L65.84137 20.67150 L65.99532 20.79245 L66.32655 21.07083 L66.45509 21.23238 L66.70531 21.56154 L66.79496 21.75210 L66.96064 22.12357 L67.00266 22.32723 L67.08150 22.73258 L67.07576 22.93333 L67.06111 23.36649 L66.94719 23.82904 L66.90471 23.99814 L66.67843 24.47070 L66.61472 24.60065 L66.26903 25.06758 L66.20420 25.15237 L65.73486 25.58891 L65.69010 25.62917 L65.10334 26.00773 L65.09588 26.01228 L64.98753 26.05760 L65.22556 26.56397 L65.83622 27.86306 L66.40562 27.64237 L66.41887 27.63607 L67.20581 27.20243 L67.23711 27.18411 L67.26762 27.16239 L67.97189 26.63323 L68.01615 26.59539 L68.60842 26.00160 L68.66229 25.94660 L68.71173 25.88545 L69.19171 25.22819 L69.24383 25.14871 L69.28837 25.06330 L69.48523 24.67832 L71.07615 30.40685 L71.48224 37.93597 L70.25544 45.41665 L69.35217 47.68648 L68.97689 47.02077 L68.92600 46.94666 L68.41044 46.30034 L68.36354 46.24470 L68.31292 46.19476 L67.69069 45.61296 L67.65070 45.58021 L66.91647 45.07032 L66.89140 45.05317 L66.86582 45.03870 L66.05500 44.62611 L66.04818 44.62301 L66.04139 44.62059 L65.75288 44.52065 L65.13097 45.81000 L64.88402 46.32198 L65.09725 46.42171 L65.11191 46.43089 L65.67005 46.82351 L65.71964 46.86902 L66.15991 47.31218 L66.22683 47.40204 L66.54432 47.87050 L66.60830 48.00517 L66.80825 48.47790 L66.84945 48.64963 L66.94203 49.10804 L66.94516 49.30380 L66.93783 49.73641 L66.89342 49.93803 L66.79560 50.33975 L66.70417 50.52947 L66.52021 50.89223 L66.38860 51.05323 L66.12359 51.36992 L65.96412 51.49201 L65.61862 51.75366 L65.18772 51.95677 L65.02966 52.03038 L64.52016 52.15257 L64.37912 52.18502 L63.79873 52.21096 L63.69204 52.21407 L63.05730 52.12486 L62.99784 52.11549 L62.33411 51.89858 L62.32587 51.89565 L62.22239 51.84010 L61.97931 52.34407 L61.35568 53.63698 L61.88591 53.93993 L61.89916 53.94624 L62.73183 54.28385 L62.76578 54.29660 L62.80187 54.30659 L63.65659 54.51981 L63.71387 54.53031 L64.54816 54.61584 L64.62482 54.62300 L64.70345 54.62284 L65.51625 54.58118 L65.61080 54.57155 L65.70519 54.55229 L66.07589 54.47356 L63.23754 58.67033 L57.74248 63.88737 L51.22238 67.81386 L46.37086 69.44761 L46.68873 68.75493 L46.71887 68.67023 L46.93957 67.87348 L46.95710 67.80285 L46.96781 67.73255 L47.07367 66.88730 L47.07672 66.83570 L47.05862 65.94197 L47.05780 65.91160 L47.05450 65.88240 L46.91267 64.98376 L46.91118 64.97642 L46.90915 64.96951 L46.82074 64.67725 L44.85235 65.03101 L44.89675 65.26219 L44.89792 65.27944 L44.90761 65.96177 L44.89987 66.02864 L44.79947 66.64519 L44.76599 66.75212 L44.57304 67.28412 L44.50156 67.41497 L44.23616 67.85430 L44.12130 67.98845 L43.80449 68.33245 L43.64783 68.44988 L43.29326 68.69785 L43.10396 68.78023 L42.72129 68.93681 L42.51403 68.97413 L42.11235 69.03810 L41.90475 69.02602 L41.49280 68.99734 L41.30036 68.93988 L40.88573 68.81370 L40.46838 68.58403 L40.31602 68.49926 L39.91805 68.15846 L39.80901 68.06332 L39.44737 67.60863 L39.38222 67.52407 L39.08192 66.95780 L39.05461 66.90415 L38.84068 66.23945 L38.83821 66.23106 L38.82245 66.11468 L36.85893 66.46756 L36.92485 67.07467 L36.92751 67.08910 L37.14287 67.96141 L37.15248 67.99639 L37.16557 68.03148 L37.49458 68.84864 L37.51969 68.90118 L37.94011 69.62686 L37.97930 69.69312 L38.02558 69.75670 L38.53635 70.39033 L38.59964 70.46123 L38.67063 70.52635 L38.95420 70.78232 L36.53333 71.04545 L29.01348 70.22808 L21.84428 67.81386 L16.75268 64.74763 L16.77882 64.74113 L17.53910 64.54565 L17.62386 64.51567 L18.38154 64.18484 L18.44742 64.15393 L18.50875 64.11795 L19.23170 63.66740 L19.27369 63.63724 L19.95615 63.05990 L19.97921 63.04013 L19.99980 63.01915 L20.60809 62.34266 L20.61285 62.33688 L20.61694 62.33094 L20.78812 62.07810 L19.27285 60.77285 L19.12135 60.95303 L19.10870 60.96481 L18.58507 61.40239 L18.52827 61.43852 L17.98631 61.74917 L17.88220 61.79057 L17.34755 61.97607 L17.20091 62.00304 L16.69255 62.07389 L16.51601 62.06927 L16.04926 62.04011 L15.85935 61.99250 L15.44336 61.87351 L15.26009 61.77846 L14.89734 61.58005 L14.73774 61.44266 L14.43490 61.17112 L14.31344 61.00234 L14.07607 60.66443 L13.99939 60.47881 L13.83602 60.07738 L13.75129 59.60860 L13.72107 59.43689 L13.73483 58.91312 L13.73998 58.76849 L13.86505 58.20115 L13.88965 58.09728 L14.14002 57.50722 L14.16445 57.45220 L14.54567 56.86718 L14.55063 56.85997 L14.63105 56.77439 L13.11954 55.47236 L12.68974 55.90618 L12.68022 55.91735 L12.13871 56.63434 L12.11761 56.66384 L12.09862 56.69612 L11.67156 57.46659 L11.64660 57.51920 L11.34816 58.30297 L11.32142 58.37517 L11.30123 58.45116 L11.13122 59.24708 L11.11606 59.34090 L11.11025 59.43706 L11.08780 59.86532 L9.82912 58.67033 L5.59287 52.40662 L2.81122 45.41665 L1.70013 38.64150 z"/>
<path fill="#000000" stroke="#000000" d="M64.88402 46.32198 L65.13097 45.81000 L65.75288 44.52065 L66.04139 44.62059 L66.04818 44.62301 L66.05500 44.62611 L66.86582 45.03870 L66.89140 45.05317 L66.91647 45.07032 L67.65070 45.58021 L67.69069 45.61296 L68.31292 46.19476 L68.36354 46.24470 L68.41044 46.30034 L68.92600 46.94666 L68.97689 47.02077 L69.36239 47.70461 L69.41294 47.79599 L69.45437 47.89330 L69.71338 48.60506 L69.74705 48.71693 L69.76803 48.83249 L69.89021 49.55006 L69.89860 49.67543 L69.88702 50.37626 L69.88013 50.50704 L69.85687 50.63593 L69.71032 51.30579 L69.67032 51.43339 L69.39774 52.05284 L69.34225 52.17485 L69.27162 52.28875 L68.87503 52.84371 L68.79143 52.94624 L68.69602 53.03763 L68.19064 53.51245 L68.08885 53.58930 L67.48031 53.97049 L67.37618 54.03101 L67.26648 54.07929 L66.57709 54.35660 L66.47245 54.38934 L65.70519 54.55229 L65.61080 54.57155 L65.51625 54.58118 L64.70345 54.62284 L64.62482 54.62300 L64.54816 54.61584 L63.71387 54.53031 L63.65659 54.51981 L62.80187 54.30659 L62.76578 54.29660 L62.73183 54.28385 L61.89916 53.94624 L61.88591 53.93993 L61.35568 53.63698 L61.97931 52.34407 L62.22239 51.84010 L62.32587 51.89565 L62.33411 51.89858 L62.99784 52.11549 L63.05730 52.12486 L63.69204 52.21407 L63.79873 52.21096 L64.37912 52.18502 L64.52016 52.15257 L65.02966 52.03038 L65.18772 51.95677 L65.61862 51.75366 L65.96412 51.49201 L66.12359 51.36992 L66.38860 51.05323 L66.52021 50.89223 L66.70417 50.52947 L66.79560 50.33975 L66.89342 49.93803 L66.93783 49.73641 L66.94516 49.30380 L66.94203 49.10804 L66.84945 48.64963 L66.80825 48.47790 L66.60830 48.00517 L66.54432 47.87050 L66.22683 47.40204 L66.15991 47.31218 L65.71964 46.86902 L65.67005 46.82351 L65.11191 46.43089 L65.09725 46.42171 z"/>
<path fill="#000000" stroke="#000000" d="M70.04322 22.60578 L69.95557 23.31848 L69.93692 23.43746 L69.90526 23.55306 L69.68602 24.26306 L69.64548 24.36493 L69.28837 25.06330 L69.24383 25.14871 L69.19171 25.22819 L68.71173 25.88545 L68.66229 25.94660 L68.60842 26.00160 L68.01615 26.59539 L67.97189 26.63323 L67.26762 27.16239 L67.23711 27.18411 L67.20581 27.20243 L66.41887 27.63607 L66.40562 27.64237 L65.83622 27.86306 L65.22556 26.56397 L64.98753 26.05760 L65.09588 26.01228 L65.10334 26.00773 L65.69010 25.62917 L65.73486 25.58891 L66.20420 25.15237 L66.26903 25.06758 L66.61472 24.60065 L66.67843 24.47070 L66.90471 23.99814 L66.94719 23.82904 L67.06111 23.36649 L67.07576 22.93333 L67.08150 22.73258 L67.00266 22.32723 L66.96064 22.12357 L66.79496 21.75210 L66.70531 21.56154 L66.45509 21.23238 L66.32655 21.07083 L65.99532 20.79245 L65.84137 20.67150 L65.42714 20.45443 L65.26785 20.37817 L64.77483 20.23543 L64.62994 20.20021 L64.06614 20.15141 L63.95420 20.14673 L63.33265 20.20920 L63.26605 20.21902 L62.60945 20.40485 L62.59308 20.41044 L62.38125 20.51312 L62.13944 19.99869 L61.53046 18.70318 L61.78990 18.54220 L61.79606 18.53845 L61.80277 18.53511 L62.63415 18.16570 L62.66151 18.15496 L62.69063 18.14631 L63.54926 17.89769 L63.59990 17.88728 L64.44378 17.77094 L64.51445 17.76312 L64.58721 17.76178 L65.41394 17.76891 L65.50354 17.77612 L66.27743 17.90787 L66.38023 17.92623 L66.48189 17.95540 L67.19772 18.20296 L67.30579 18.24733 L67.40873 18.30388 L68.04281 18.66132 L68.14543 18.73383 L68.68221 19.18456 L68.77941 19.27234 L68.86481 19.37164 L69.29247 19.90764 L69.36632 20.01912 L69.67541 20.62118 L69.73516 20.74116 L69.77907 20.86779 L69.95993 21.52548 L69.98683 21.65500 L69.99765 21.78668 L70.04771 22.47832 z"/>
<path fill="#000000" stroke="#000000" d="M48.92461 6.55034 L48.92235 6.58773 L48.91695 6.62359 L48.76012 7.50831 L48.75671 7.52257 L48.57080 8.10427 L46.63285 7.63070 L46.66563 7.51792 L46.66678 7.50925 L46.74073 6.81491 L46.73751 6.75479 L46.69261 6.11539 L46.66735 6.01168 L46.52113 5.44942 L46.46002 5.31823 L46.23442 4.84534 L46.12952 4.70607 L45.84114 4.32691 L45.51328 4.04345 L45.36066 3.91290 L44.99573 3.71965 L44.81086 3.62444 L44.41774 3.52004 L44.21315 3.47012 L43.79986 3.45809 L43.59341 3.45664 L43.16875 3.53955 L42.97794 3.58337 L42.54886 3.76937 L42.38947 3.84543 L41.96873 4.13942 L41.85033 4.23004 L41.45825 4.63811 L41.38429 4.72228 L41.04252 5.24517 L41.00833 5.30316 L40.74053 5.93081 L40.73461 5.94706 L40.68146 6.17638 L38.73870 5.70164 L38.77638 5.39864 L38.77733 5.39150 L38.77895 5.38418 L39.01366 4.50523 L39.02248 4.47719 L39.03405 4.44910 L39.37988 3.62480 L39.40358 3.57886 L39.84307 2.84912 L39.88137 2.78922 L39.92603 2.73176 L40.45083 2.09292 L40.51272 2.02772 L41.10131 1.50828 L41.18016 1.43981 L41.26671 1.37903 L41.90894 0.97749 L42.01135 0.92126 L42.12001 0.87669 L42.79641 0.60777 L42.91728 0.57346 L43.60516 0.43886 L43.73451 0.41836 L43.86542 0.41428 L44.55111 0.41814 L44.68425 0.43070 L45.34687 0.56832 L45.47776 0.59719 L45.60388 0.64255 L46.22925 0.91490 L46.34694 0.97531 L46.45619 1.04960 L47.02583 1.44505 L47.12219 1.52860 L47.62173 2.04443 L47.70261 2.13368 L47.77267 2.23092 L48.18745 2.84746 L48.24126 2.94299 L48.56040 3.65951 L48.59889 3.74781 L48.62800 3.83829 L48.83799 4.62460 L48.85451 4.70148 L48.86347 4.77794 L48.95354 5.61176 L48.95519 5.66997 z"/>
<path fill="#000000" stroke="#000000" d="M15.15821 11.88775 L15.22850 12.44927 L15.24735 12.55972 L15.43853 13.15442 L15.46207 13.21749 L15.78121 13.82065 L15.79011 13.83548 L15.93485 14.02113 L14.34308 15.23191 L14.13136 15.01191 L14.12641 15.00668 L14.12174 15.00082 L13.58649 14.26517 L13.57026 14.24067 L13.55571 14.21400 L13.13288 13.42642 L13.11210 13.37908 L12.82171 12.57825 L12.79926 12.51078 L12.78273 12.43992 L12.61666 11.63001 L12.60496 11.54088 L12.57181 10.75656 L12.56824 10.65219 L12.57549 10.54668 L12.66773 9.79489 L12.68850 9.67993 L12.72225 9.56743 L12.93906 8.87257 L12.98848 8.75706 L13.31688 8.13782 L13.38236 8.02440 L13.46159 7.92011 L13.89620 7.38973 L13.98976 7.29418 L14.51379 6.86592 L14.61861 6.78239 L14.73324 6.71294 L15.33851 6.39843 L15.45953 6.34501 L15.58602 6.30688 L16.25186 6.11316 L16.37744 6.09087 L17.09270 6.02740 L17.21295 6.02073 L17.33261 6.02749 L18.07277 6.09327 L18.18087 6.11159 L18.93852 6.31462 L19.03137 6.34029 L19.11999 6.37462 L19.86316 6.70640 L19.93330 6.74195 L19.99836 6.78311 L20.70296 7.23798 L20.74923 7.27333 L21.41408 7.85125 L21.44170 7.87653 L21.46617 7.90331 L22.05491 8.58205 L22.06385 8.59368 L22.39883 9.10428 L20.81100 10.31207 L20.74401 10.21561 L20.73800 10.20926 L20.24501 9.71474 L20.19627 9.67940 L19.67117 9.31183 L19.57468 9.26618 L19.04574 9.02588 L18.90534 8.99078 L18.39588 8.86842 L18.22163 8.86227 L17.74548 8.84770 L17.31886 8.92404 L17.12135 8.96045 L16.74148 9.12237 L16.55113 9.20609 L16.22256 9.44585 L16.05499 9.57341 L15.78549 9.88698 L15.65442 10.04648 L15.45154 10.42864 L15.36549 10.60450 L15.23993 11.05499 L15.19870 11.22672 L15.16231 11.73870 z"/>
<path fill="#000000" stroke="#000000" d="M3.07400 35.26786 L3.14769 35.67470 L3.18896 35.87698 L3.35789 36.27532 L3.44023 36.45295 L3.71094 36.83429 L3.81831 36.97451 L4.19295 37.32536 L4.30610 37.42246 L4.78642 37.72169 L4.88407 37.77664 L5.46633 38.00289 L5.53014 38.02435 L6.19960 38.15657 L6.21672 38.15901 L6.45208 38.16359 L6.38934 40.16253 L6.08510 40.18832 L6.07791 40.18887 L6.07042 40.18880 L5.16193 40.14092 L5.13267 40.13808 L5.10280 40.13258 L4.22480 39.96468 L4.17495 39.95098 L3.37011 39.67189 L3.30357 39.64681 L3.23812 39.61500 L2.50457 39.23365 L2.42798 39.18657 L1.79805 38.71813 L1.71476 38.65514 L1.63739 38.58303 L1.11173 38.03771 L1.03554 37.94915 L0.96946 37.85205 L0.56648 37.24588 L0.50792 37.13472 L0.23398 36.48954 L0.18718 36.36722 L0.15611 36.23999 L0.01810 35.56832 L0.00285 35.43546 L0.00048 34.75870 L0.00165 34.62467 L0.01996 34.49190 L0.15710 33.82373 L0.19187 33.69609 L0.24196 33.57384 L0.51106 32.93473 L0.57288 32.82318 L0.97427 32.22776 L1.04486 32.13018 L1.12551 32.04153 L1.64295 31.50822 L1.72529 31.43582 L2.36032 30.97541 L2.43876 30.91949 L2.52126 30.87230 L3.24715 30.50425 L3.31895 30.47219 L3.39191 30.44761 L4.18908 30.18707 L4.24569 30.17341 L5.11336 30.02127 L5.15040 30.01576 L5.18661 30.01363 L6.08463 29.98411 L6.09930 29.98450 L6.70686 30.04610 L6.64428 32.04010 L6.52716 32.03135 L6.51844 32.03202 L5.82381 32.10324 L5.76566 32.11882 L5.14937 32.29498 L5.05312 32.34114 L4.53325 32.60047 L4.41753 32.68738 L4.00151 33.00589 L3.88695 33.13733 L3.57561 33.49789 L3.36608 33.87727 L3.26991 34.05358 L3.15630 34.45059 L3.10138 34.65116 L3.08053 35.05737 z"/>
<path fill="#000000" stroke="#000000" d="M11.06918 60.22036 L11.11025 59.43706 L11.11606 59.34090 L11.13122 59.24708 L11.30123 58.45116 L11.32142 58.37517 L11.34816 58.30297 L11.64660 57.51920 L11.67156 57.46659 L12.09862 56.69612 L12.11761 56.66384 L12.13871 56.63434 L12.68022 55.91735 L12.68974 55.90618 L13.11954 55.47236 L14.63105 56.77439 L14.55063 56.85997 L14.54567 56.86718 L14.16445 57.45220 L14.14002 57.50722 L13.88965 58.09728 L13.86505 58.20115 L13.73998 58.76849 L13.73483 58.91312 L13.72107 59.43689 L13.75129 59.60860 L13.83602 60.07738 L13.99939 60.47881 L14.07607 60.66443 L14.31344 61.00234 L14.43490 61.17112 L14.73774 61.44266 L14.89734 61.58005 L15.26009 61.77846 L15.44336 61.87351 L15.85935 61.99250 L16.04926 62.04011 L16.51601 62.06927 L16.69255 62.07389 L17.20091 62.00304 L17.34755 61.97607 L17.88220 61.79057 L17.98631 61.74917 L18.52827 61.43852 L18.58507 61.40239 L19.10870 60.96481 L19.12135 60.95303 L19.27285 60.77285 L20.78812 62.07810 L20.61694 62.33094 L20.61285 62.33688 L20.60809 62.34266 L19.99980 63.01915 L19.97921 63.04013 L19.95615 63.05990 L19.27369 63.63724 L19.23170 63.66740 L18.50875 64.11795 L18.44742 64.15393 L18.38154 64.18484 L17.62386 64.51567 L17.53910 64.54565 L16.77882 64.74113 L16.67747 64.76632 L16.57276 64.78117 L15.81822 64.84725 L15.70145 64.85084 L15.58439 64.84120 L14.85964 64.77361 L14.73638 64.74928 L14.06239 64.55680 L13.93784 64.51633 L13.81936 64.46051 L13.21021 64.14567 L13.09730 64.07402 L12.56944 63.65048 L12.46594 63.56532 L12.37418 63.46763 L11.94070 62.94098 L11.86329 62.83371 L11.79969 62.71790 L11.47177 62.10689 L11.42386 61.98869 L11.21307 61.30226 L11.18154 61.18602 L11.16328 61.06757 L11.07374 60.32990 z"/>
<path fill="#000000" stroke="#000000" d="M44.85235 65.03101 L46.82074 64.67725 L46.90915 64.96951 L46.91118 64.97642 L46.91267 64.98376 L47.05450 65.88240 L47.05780 65.91160 L47.05862 65.94197 L47.07672 66.83570 L47.07367 66.88730 L46.96781 67.73255 L46.95710 67.80285 L46.93957 67.87348 L46.71887 68.67023 L46.68873 68.75493 L46.36131 69.46841 L46.31699 69.56296 L46.26252 69.65362 L45.83826 70.28107 L45.76745 70.37399 L45.68620 70.45880 L45.17693 70.97887 L45.08035 71.05924 L44.50613 71.46120 L44.39620 71.53238 L44.27819 71.58919 L43.64982 71.86369 L43.52303 71.90619 L42.86152 72.04906 L42.73017 72.07574 L42.59649 72.08541 L41.91440 72.09002 L41.78233 72.08252 L41.65234 72.05890 L40.97128 71.92839 L40.84932 71.89109 L40.18353 71.62211 L40.07342 71.57332 L39.96994 71.51284 L39.34080 71.11743 L39.25288 71.05192 L38.67063 70.52635 L38.59964 70.46123 L38.53635 70.39033 L38.02558 69.75670 L37.97930 69.69312 L37.94011 69.62686 L37.51969 68.90118 L37.49458 68.84864 L37.16557 68.03148 L37.15248 67.99639 L37.14287 67.96141 L36.92751 67.08910 L36.92485 67.07467 L36.85893 66.46756 L38.82245 66.11468 L38.83821 66.23106 L38.84068 66.23945 L39.05461 66.90415 L39.08192 66.95780 L39.38222 67.52407 L39.44737 67.60863 L39.80901 68.06332 L39.91805 68.15846 L40.31602 68.49926 L40.46838 68.58403 L40.88573 68.81370 L41.30036 68.93988 L41.49280 68.99734 L41.90475 69.02602 L42.11235 69.03810 L42.51403 68.97413 L42.72129 68.93681 L43.10396 68.78023 L43.29326 68.69785 L43.64783 68.44988 L43.80449 68.33245 L44.12130 67.98845 L44.23616 67.85430 L44.50156 67.41497 L44.57304 67.28412 L44.76599 66.75212 L44.79947 66.64519 L44.89987 66.02864 L44.90761 65.96177 L44.89792 65.27944 L44.89675 65.26219 z"/>
</svg>